<svg version="1.1" id="Layer_1" xmlns="http://www.w3.org/2000/svg" xmlns:xlink="http://www.w3.org/1999/xlink" x="0px" y="0px"
	 width="100%" viewBox="0 0 369 137" enable-background="new 0 0 369 137" xml:space="preserve">
<path fill="#FDFDFD" opacity="1.000000" stroke="none" 
	d="
M240.000000,138.000000 
	C160.000015,138.000000 80.500015,138.000000 1.000021,138.000000 
	C1.000014,92.333351 1.000014,46.666698 1.000007,1.000034 
	C123.999969,1.000022 246.999939,1.000022 369.999939,1.000011 
	C369.999939,46.666630 369.999939,92.333260 369.999969,137.999939 
	C326.833344,138.000000 283.666656,138.000000 240.000000,138.000000 
M58.547989,13.742627 
	C60.375824,12.835599 62.203659,11.928571 64.783417,11.041424 
	C66.406387,10.532227 68.029350,10.023030 69.652321,9.513834 
	C69.729942,8.909580 69.807564,8.305327 69.885185,7.701075 
	C65.572708,6.468197 61.294788,5.068891 56.915157,4.159342 
	C56.147350,3.999886 54.952656,5.895952 53.348579,7.212434 
	C52.251514,7.518281 51.154449,7.824128 49.376263,7.824749 
	C47.806335,7.021752 46.056030,5.753849 45.770672,9.714580 
	C44.522850,10.172611 43.275024,10.630642 41.232655,10.896491 
	C39.075470,11.575214 36.590370,11.778078 34.810604,13.004507 
	C10.641186,29.659563 1.044830,52.793514 5.077348,81.628120 
	C9.259658,111.533821 36.808254,135.512054 67.902954,135.980225 
	C70.897194,135.815018 73.891434,135.649811 77.696297,135.592911 
	C82.083221,134.951523 86.470146,134.310135 90.857063,133.668747 
	C90.850998,133.335159 90.844925,133.001572 90.838852,132.667984 
	C86.543976,131.842941 82.249100,131.017899 77.229202,129.979584 
	C55.049728,122.769829 39.693645,108.431625 36.435364,85.028625 
	C33.224655,61.967331 42.921406,43.628029 62.806923,31.033791 
	C64.579010,29.911459 66.230408,28.598557 67.937859,27.374161 
	C67.711945,26.968220 67.486023,26.562277 67.260109,26.156334 
	C64.547096,27.127571 61.834087,28.098806 58.554436,28.683809 
	C55.122437,25.700241 51.690441,22.716673 48.706417,19.179283 
	C50.422573,18.039114 52.138733,16.898945 54.486610,15.659360 
	C55.614983,15.053130 56.743359,14.446900 58.547989,13.742627 
M91.541122,91.496864 
	C87.866364,95.605995 84.191605,99.715134 80.516846,103.824265 
	C80.800278,104.195000 81.083717,104.565727 81.367149,104.936455 
	C83.206306,104.187515 85.878105,103.954285 86.723251,102.589706 
	C88.959702,98.978790 90.405479,94.878159 91.975800,90.983742 
	C91.975800,90.983742 92.174171,90.893425 92.174171,90.893425 
	C92.174171,90.893425 92.068077,91.052673 91.541122,91.496864 
M339.022308,53.337124 
	C338.661743,53.174175 338.301208,53.011227 337.185242,52.596310 
	C336.139221,52.685371 335.093231,52.774437 333.492584,52.742203 
	C333.334991,52.846901 333.177368,52.951603 332.304565,53.510292 
	C332.304565,61.588955 332.304565,69.667618 332.304565,77.878296 
	C334.443634,77.878296 336.237518,77.878296 338.590637,77.934929 
	C338.721313,77.625015 338.851959,77.315109 339.189331,76.086983 
	C339.125702,68.724487 339.062073,61.362000 339.022308,53.337124 
M250.796921,78.000275 
	C252.272812,77.478119 253.748718,76.955963 255.448639,76.354553 
	C255.448639,70.106033 255.448639,63.999763 255.448639,57.903065 
	C260.761749,56.057457 260.893402,59.835140 261.174042,62.858215 
	C263.356049,62.858215 265.112091,62.858215 268.656891,62.858215 
	C266.795258,59.031693 265.377441,56.117485 263.509979,52.977497 
	C263.344208,53.002800 263.178406,53.028107 262.121765,52.770199 
	C258.087067,52.822239 254.052353,52.874279 249.385513,52.882442 
	C249.263657,53.253338 249.141815,53.624229 248.835175,54.917221 
	C248.902283,62.280632 248.969391,69.644043 248.987656,77.567024 
	C249.314850,77.665131 249.642044,77.763237 250.796921,78.000275 
M323.034882,55.799110 
	C320.117065,52.074947 315.951599,52.611137 312.024811,52.783287 
	C308.473755,52.938976 304.943085,53.559074 301.377686,53.977406 
	C301.377686,61.521927 301.377686,69.636780 301.377686,77.725494 
	C307.994324,78.325768 307.996582,78.325768 308.002014,71.934753 
	C308.005890,67.348099 308.002747,62.761440 308.002747,58.228046 
	C317.891571,57.926300 317.891602,57.926300 317.892456,67.065506 
	C317.892670,69.064316 318.053162,71.078911 317.858582,73.058601 
	C317.471710,76.994980 318.972565,78.732925 323.839142,77.994492 
	C323.648987,70.819466 323.458832,63.644436 323.034882,55.799110 
M174.585983,77.998817 
	C174.705841,77.671707 174.825684,77.344604 175.086182,76.087685 
	C175.086182,70.147552 175.086182,64.207413 175.086182,58.123425 
	C176.550781,58.123425 177.377960,58.124798 178.205154,58.123211 
	C184.540939,58.111038 184.969757,58.541027 184.983887,64.966881 
	C184.990829,68.129898 184.644882,71.348145 185.143768,74.430511 
	C185.362595,75.782448 187.294083,76.857178 188.447891,78.057770 
	C189.635788,76.883881 191.729172,75.794380 191.847870,74.520836 
	C192.263123,70.065483 192.188370,65.536003 191.939880,61.054638 
	C191.648209,55.794376 189.105331,53.305756 183.753021,52.839191 
	C180.989883,52.598324 178.188431,52.796856 175.254669,52.796856 
	C175.100098,49.267376 174.971603,46.333675 174.844391,43.428719 
	C172.609451,43.428719 170.722260,43.428719 168.765625,43.428719 
	C168.765625,55.116516 168.765625,66.499748 168.765625,77.954285 
	C170.724808,77.954285 172.369171,77.954285 174.585983,77.998817 
M110.938431,53.423973 
	C110.633926,53.312309 110.329422,53.200642 109.337219,53.131538 
	C102.720680,62.953426 96.104134,72.775314 89.487587,82.597206 
	C89.718086,83.096397 89.948578,83.595596 90.179070,84.094788 
	C93.074684,83.397919 95.970299,82.701042 98.846542,82.008827 
	C98.846542,87.182518 98.710030,93.429993 98.946342,99.663338 
	C99.002625,101.148010 100.200836,103.756584 101.053177,103.832428 
	C104.008682,104.095406 107.043175,103.470711 110.570213,103.003059 
	C110.677025,102.679222 110.783836,102.355385 111.065826,101.104630 
	C111.008743,85.394600 110.951653,69.684570 110.938431,53.423973 
M58.290882,65.506004 
	C58.290882,78.284760 58.290882,91.063507 58.290882,104.032227 
	C62.516769,104.032227 66.282890,104.032227 70.722176,104.032227 
	C70.722176,96.725365 70.722176,89.606758 70.722176,82.488152 
	C70.991554,82.479652 71.260941,82.471161 71.530319,82.462662 
	C74.482124,88.183022 77.433929,93.903381 80.874268,100.570488 
	C83.421158,95.417450 85.285500,91.645386 87.233734,87.703575 
	C85.424622,87.263466 84.168953,86.958000 82.612595,86.579376 
	C86.652534,75.764633 90.611649,65.166252 94.570770,54.567867 
	C94.069077,54.353813 93.567390,54.139759 93.065704,53.925705 
	C89.559830,59.849205 86.053955,65.772713 82.252159,72.196182 
	C78.755119,65.812431 75.561661,59.670006 72.013756,53.739624 
	C71.189659,52.362122 69.254135,51.105560 67.660927,50.850796 
	C64.768456,50.388283 61.749050,50.719620 58.290955,50.719620 
	C58.290955,55.596104 58.290955,60.052990 58.290882,65.506004 
M205.788223,78.045609 
	C211.288910,77.747314 216.789597,77.449013 222.496384,77.139534 
	C222.496384,71.348946 222.357971,66.210243 222.535263,61.082443 
	C222.712982,55.941952 216.316605,51.852589 211.506302,52.736786 
	C207.239410,53.521103 202.838333,53.575359 198.379913,53.961990 
	C198.379913,54.725780 198.379913,56.143520 198.379913,57.371132 
	C204.064774,59.754398 211.143616,54.946575 215.706451,62.140499 
	C211.446960,63.282032 207.164932,64.084892 202.986389,63.715824 
	C198.993500,63.363155 197.564041,65.205956 196.884048,68.409958 
	C195.631073,74.313614 198.323685,77.497200 205.788223,78.045609 
M276.029480,76.729279 
	C282.124329,79.363716 288.145599,79.547112 293.240540,74.862335 
	C297.275421,71.152306 297.586426,65.958481 296.357178,60.975281 
	C294.956573,55.297550 290.290070,52.186016 284.069092,52.000633 
	C277.527374,51.805698 272.884369,54.717556 270.777863,60.336258 
	C268.568298,66.229866 270.259766,72.003746 276.029480,76.729279 
M242.868469,52.617695 
	C241.264053,52.529072 239.659637,52.440445 237.472687,52.319641 
	C237.472687,49.087990 237.472687,46.199978 237.472687,43.421803 
	C234.941162,43.421803 233.024155,43.421803 230.773438,43.421803 
	C230.773438,46.492413 230.773438,49.266575 230.773438,52.040733 
	C230.424866,51.828217 230.076279,51.615700 229.727707,51.403179 
	C228.270493,53.051353 226.813293,54.699524 224.677170,57.115578 
	C227.719086,57.619553 229.239319,57.871422 230.922974,58.150360 
	C230.922974,62.843533 230.443344,67.238358 231.118744,71.447868 
	C231.473679,73.660126 233.441422,76.514816 235.412399,77.347115 
	C238.105637,78.484406 241.495758,77.971390 244.695068,78.172607 
	C244.695068,76.155975 244.695068,74.739494 244.695068,73.357468 
	C237.215195,72.311058 236.441086,70.482231 238.116714,57.966125 
	C240.270309,57.790546 242.489090,57.609650 245.483292,57.365536 
	C244.759476,55.423992 244.248749,54.054070 242.868469,52.617695 
M116.042175,68.862167 
	C119.324020,77.871124 122.158714,78.866806 138.435837,75.905479 
	C137.486557,74.819687 136.233231,73.851128 135.064880,73.944603 
	C127.300987,74.565750 124.938774,73.532158 123.507805,68.588730 
	C128.124435,66.267532 134.617691,70.724998 138.477310,65.659843 
	C138.364410,65.048180 138.251511,64.436516 138.138611,63.824848 
	C133.254974,63.824848 128.371338,63.824848 122.721687,63.824848 
	C125.365311,53.831715 133.608856,60.316357 139.162109,56.587822 
	C137.757339,55.483749 136.675797,53.927654 135.458496,53.812981 
	C132.165695,53.502796 128.813736,53.896530 125.487900,53.843674 
	C120.326233,53.761642 116.788643,56.473610 116.069344,61.536522 
	C115.768112,63.656792 115.989204,65.851273 116.042175,68.862167 
M152.064316,77.977386 
	C154.894196,77.999588 157.772629,78.337097 160.533676,77.912109 
	C161.932022,77.696869 163.118408,76.104614 164.400635,75.134933 
	C164.086899,74.685432 163.773178,74.235931 163.459457,73.786430 
	C161.487747,73.786430 159.508942,73.894592 157.545639,73.766151 
	C151.659348,73.381088 148.294815,70.049393 148.473923,64.908051 
	C148.656509,59.666939 150.811203,58.071541 157.742218,58.046986 
	C158.741104,58.043449 159.934723,58.392258 160.696167,57.966415 
	C162.054840,57.206558 163.152527,55.980057 164.359344,54.948685 
	C159.379868,53.887859 155.307755,54.442711 151.464996,53.741241 
	C147.094208,52.943375 144.986313,55.126850 143.188416,58.216465 
	C138.644409,66.025169 142.672714,77.072754 152.064316,77.977386 
M364.116852,57.985668 
	C364.875000,56.853642 365.633179,55.721619 366.851501,53.902493 
	C361.705048,53.902493 357.688385,54.373165 353.832642,53.786377 
	C348.721558,53.008541 346.553314,55.907021 344.885864,59.701950 
	C340.798401,69.004608 346.499329,77.906258 356.663849,77.938309 
	C359.816650,77.948250 362.972015,77.154732 366.126190,76.729057 
	C366.316132,76.259514 366.506073,75.789963 366.696014,75.320419 
	C365.483459,74.469788 364.375549,73.222214 363.032104,72.868034 
	C361.316284,72.415695 359.393555,72.827568 357.589539,72.615448 
	C352.302124,71.993782 350.771149,70.110878 350.954041,64.726852 
	C351.115234,59.982018 353.021973,58.217190 358.234283,58.049881 
	C359.892090,57.996674 361.552856,58.036713 364.116852,57.985668 
M212.770126,95.179901 
	C215.465820,95.524323 218.161530,95.868744 220.857224,96.213173 
	C220.822250,96.999168 220.787277,97.785172 220.752304,98.571175 
	C217.664108,98.784492 214.561264,98.884560 211.496826,99.281342 
	C210.598083,99.397705 209.808411,100.356514 208.968750,100.929214 
	C209.783981,101.526909 210.575806,102.594398 211.418701,102.636360 
	C214.223068,102.775986 217.052582,102.640114 219.859650,102.435013 
	C222.988007,102.206444 225.281860,100.149574 224.606155,97.315216 
	C224.137619,95.349800 221.637741,93.311501 219.567886,92.439995 
	C217.453629,91.549774 214.756226,92.044449 211.739075,91.906563 
	C213.522766,84.437790 221.806564,91.273735 224.618469,85.000427 
	C220.284866,85.000427 216.747498,84.504486 213.453537,85.185646 
	C211.463867,85.597092 209.027359,87.493797 208.264191,89.333893 
	C207.126038,92.078049 208.595230,94.498451 212.770126,95.179901 
M292.249268,89.915558 
	C288.646729,89.915558 285.044220,89.915558 281.563995,89.915558 
	C280.134552,98.223091 280.522980,100.613625 284.111237,102.274666 
	C284.111237,99.664467 283.939636,97.392944 284.200592,95.172249 
	C284.297150,94.350990 285.411011,93.649292 286.060913,92.893074 
	C286.724060,93.627502 287.795471,94.279922 287.963013,95.113899 
	C288.284119,96.712555 287.924438,98.441452 288.186737,100.061325 
	C288.309052,100.816414 289.223999,101.443138 289.779663,102.128059 
	C290.482849,101.424149 291.513062,100.833420 291.805847,99.987457 
	C292.165955,98.946983 291.651337,97.610954 291.988007,96.553337 
	C292.400696,95.257088 293.303284,94.116783 293.994080,92.909042 
	C294.640869,94.200401 295.501221,95.433876 295.871490,96.800179 
	C296.208740,98.044746 295.907379,99.450043 296.109497,100.749969 
	C296.184418,101.231895 296.852081,101.901802 297.319946,101.965118 
	C297.805359,102.030830 298.607147,101.603378 298.873810,101.155434 
	C301.468018,96.797043 298.176147,90.367508 292.249268,89.915558 
M234.461472,99.558578 
	C233.063980,98.656868 231.318405,98.014160 230.388519,96.764503 
	C229.743729,95.897987 230.453857,94.134895 230.126801,92.885429 
	C229.859726,91.865211 228.953430,91.012329 228.330536,90.085258 
	C227.887222,91.011162 227.141037,91.907936 227.048752,92.867592 
	C226.343948,100.196968 226.672165,100.620186 234.418472,103.653381 
	C232.027054,104.154198 229.635651,104.655006 227.244232,105.155823 
	C227.351440,105.765282 227.458633,106.374748 227.565826,106.984207 
	C229.984070,106.984207 232.572556,107.514648 234.764908,106.810951 
	C236.422394,106.278938 238.468582,104.335434 238.764801,102.729294 
	C239.387558,99.352417 239.086899,95.778198 238.898895,92.299377 
	C238.856247,91.510002 237.728409,90.779266 237.100052,90.021530 
	C236.496735,90.831757 235.506195,91.581093 235.367310,92.464355 
	C235.034851,94.578514 235.103149,96.755676 234.461472,99.558578 
M358.262024,102.724464 
	C362.563995,102.423988 366.881348,101.963585 366.973297,96.226357 
	C367.059113,90.872009 363.396484,89.761139 358.979614,89.728859 
	C358.700195,89.726822 358.423096,89.412422 359.348511,89.974892 
	C357.644653,87.649086 356.702118,86.362488 355.759583,85.075897 
	C355.172516,86.526711 354.194427,87.946983 354.078278,89.434570 
	C353.821533,92.722221 354.131317,96.050797 353.956573,99.349243 
	C353.816467,101.993408 354.893005,103.005562 358.262024,102.724464 
M131.847595,90.367210 
	C132.421341,88.731300 132.995087,87.095390 133.873444,84.590919 
	C126.534409,86.443039 128.322739,93.897346 124.528168,96.992775 
	C121.395424,93.490616 122.424904,86.888077 116.274429,85.584846 
	C117.692429,90.668686 119.664879,95.370056 121.876297,99.956177 
	C122.345596,100.929428 123.675957,102.052689 124.629097,102.070625 
	C125.609123,102.089066 127.033630,101.057922 127.528015,100.104591 
	C129.044769,97.179787 130.208893,94.072105 131.847595,90.367210 
M347.915466,90.108971 
	C345.015808,90.108971 342.116150,90.108971 339.216492,90.108971 
	C339.205933,90.586716 339.195343,91.064453 339.184784,91.542198 
	C341.782898,92.086075 344.380981,92.629951 346.979095,93.173828 
	C346.904327,93.658333 346.829590,94.142838 346.754852,94.627342 
	C345.030731,94.736267 343.090515,94.391418 341.642792,95.080795 
	C340.173065,95.780647 338.570526,97.359085 338.232880,98.829788 
	C338.040833,99.666283 340.138519,101.832909 341.426514,102.042992 
	C344.424683,102.532013 347.556946,102.198875 352.215576,102.198875 
	C350.842346,97.559364 349.785278,93.988091 347.915466,90.108971 
M159.235687,94.760460 
	C159.452606,88.943703 154.640991,90.350533 151.574982,89.656418 
	C151.067886,87.916000 150.644653,86.463432 150.157578,84.791740 
	C146.547424,87.969147 146.964233,100.447044 150.700287,102.047363 
	C150.898254,99.001457 151.087158,96.094910 151.273148,93.233299 
	C154.081039,93.097145 154.081039,93.097145 156.909500,101.928955 
	C157.385223,102.024834 157.860947,102.120720 158.336670,102.216599 
	C158.639191,100.033966 158.941696,97.851326 159.235687,94.760460 
M275.222412,99.937538 
	C273.544403,99.610367 271.866394,99.283203 270.188385,98.956032 
	C270.250122,98.507034 270.311890,98.058029 270.373627,97.609032 
	C272.770264,97.319176 275.166931,97.029320 277.563568,96.739456 
	C277.558258,96.258896 277.552948,95.778328 277.547607,95.297760 
	C275.146912,95.066917 272.746216,94.836075 270.345520,94.605232 
	C270.296051,94.213943 270.246582,93.822647 270.197144,93.431351 
	C272.681793,92.718567 275.166443,92.005791 277.651093,91.293007 
	C276.058441,90.123886 274.480164,89.559151 273.285706,90.010384 
	C270.877197,90.920250 267.829346,91.865685 266.661224,93.781670 
	C265.735016,95.300888 266.428558,99.339432 267.814148,100.379913 
	C269.930695,101.969208 273.263855,101.938217 276.080536,102.595131 
	C276.057037,101.717430 276.033539,100.839729 275.222412,99.937538 
M312.332764,92.154129 
	C312.349609,91.432365 312.366425,90.710594 312.383270,89.988831 
	C310.228180,89.986954 307.889923,89.469894 305.977356,90.150017 
	C304.509003,90.672165 303.577271,92.703232 302.406891,94.063232 
	C303.649902,95.088959 304.748016,96.483704 306.173950,97.043678 
	C307.823730,97.691559 309.761993,97.604828 311.575012,97.837036 
	C311.580353,98.326149 311.585693,98.815254 311.591034,99.304367 
	C308.768677,99.702324 305.946289,100.100281 303.123932,100.498238 
	C303.151184,101.078079 303.178406,101.657913 303.205627,102.237755 
	C305.853760,102.237755 308.603851,102.668251 311.111328,102.074326 
	C312.586700,101.724861 313.676727,99.748680 314.940094,98.504135 
	C313.646667,97.302376 312.520447,95.778236 311.010010,94.994881 
	C309.659729,94.294601 307.885651,94.411575 306.298553,94.167938 
	C306.318756,93.677498 306.338928,93.187065 306.359100,92.696632 
	C308.073181,92.530647 309.787231,92.364670 312.332764,92.154129 
M247.255859,92.257660 
	C249.145706,92.032021 251.035553,91.806374 252.925400,91.580734 
	C252.875351,91.037437 252.825302,90.494148 252.775253,89.950859 
	C250.382599,89.950859 247.874863,89.515076 245.638138,90.105652 
	C244.171936,90.492783 243.097672,92.364304 241.847870,93.571030 
	C243.071945,94.765015 244.113754,96.324371 245.570877,97.051231 
	C247.057007,97.792572 248.951279,97.715691 250.666870,97.997040 
	C250.630219,98.468987 250.593567,98.940933 250.556915,99.412880 
	C247.758301,99.773643 244.959702,100.134407 242.161102,100.495171 
	C242.212784,101.033081 242.264481,101.570999 242.316177,102.108917 
	C245.346375,102.108917 248.428162,102.423416 251.379028,101.939560 
	C252.421936,101.768555 253.838806,99.634911 253.815186,98.422035 
	C253.792542,97.258995 252.333954,95.712013 251.120056,95.099579 
	C249.899414,94.483749 248.184387,94.905746 246.733643,94.625969 
	C246.514542,94.583717 246.554352,93.198883 247.255859,92.257660 
M187.973938,93.907417 
	C188.725006,96.446075 188.726349,100.058601 190.422867,101.243088 
	C192.404388,102.626556 195.865463,101.890877 198.684616,102.074608 
	C198.712326,101.554756 198.740021,101.034897 198.767731,100.515045 
	C196.460800,100.047844 194.153885,99.580643 191.846954,99.113441 
	C191.876373,98.694466 191.905792,98.275482 191.935226,97.856506 
	C194.253418,97.418732 196.571609,96.980957 198.889801,96.543182 
	C198.855377,96.175140 198.820953,95.807098 198.786530,95.439056 
	C196.555450,95.096779 194.324371,94.754494 192.093292,94.412216 
	C192.061279,94.010056 192.029266,93.607887 191.997253,93.205727 
	C194.309601,92.593842 196.621964,91.981964 198.934326,91.370087 
	C194.808594,89.957520 190.796768,88.648750 187.973938,93.907417 
M144.767456,90.539139 
	C143.659531,90.332916 142.558868,90.013565 141.442322,89.942032 
	C138.298752,89.740646 134.955704,90.116852 134.373428,93.735107 
	C134.001953,96.043434 134.536621,99.778610 136.059799,100.805847 
	C138.258179,102.288429 141.722031,101.894539 144.645920,102.301323 
	C144.717377,101.735687 144.788849,101.170052 144.860306,100.604416 
	C142.609116,100.047226 140.357925,99.490036 138.106735,98.932846 
	C138.155563,98.530701 138.204407,98.128555 138.253235,97.726410 
	C140.503708,97.326607 142.754166,96.926811 145.004639,96.527016 
	C144.941071,96.137550 144.877487,95.748085 144.813919,95.358620 
	C142.574936,95.043083 140.335968,94.727547 138.097000,94.412010 
	C138.093109,93.993202 138.089233,93.574394 138.085358,93.155586 
	C140.331635,92.565086 142.577911,91.974594 144.767456,90.539139 
M172.112274,94.760071 
	C174.638733,93.608315 177.165192,92.456551 180.271347,91.040520 
	C173.363602,88.901245 170.212036,89.791718 168.585175,93.804962 
	C167.239395,97.124870 168.254761,99.990295 171.161209,101.506264 
	C173.789810,102.877312 176.995361,103.740257 180.383347,101.063339 
	C176.897141,98.927170 171.571625,101.546860 172.112274,94.760071 
M263.067596,102.212921 
	C263.315430,101.517471 263.958282,100.374146 263.752655,100.192772 
	C259.735626,96.649376 259.941833,93.756378 263.851471,91.300117 
	C262.884949,89.716492 261.987213,88.160118 260.996826,86.665138 
	C260.602753,86.070267 260.003540,85.611282 259.497711,85.090446 
	C258.987915,85.608932 258.323120,86.046036 257.999481,86.662300 
	C257.248962,88.091469 256.663300,89.607216 256.326996,90.370316 
	C256.925385,92.916870 257.774170,95.029137 257.840057,97.165535 
	C257.935852,100.271812 258.594116,102.434982 263.067596,102.212921 
M336.016571,100.106033 
	C328.121643,99.393272 328.121307,99.393272 328.113373,91.057716 
	C328.111542,89.126427 328.113098,87.195129 328.113098,85.263840 
	C327.599396,85.110474 327.085693,84.957115 326.571991,84.803757 
	C325.997345,85.783600 325.009613,86.730080 324.927277,87.749687 
	C324.700256,90.561340 324.510254,93.460815 324.971405,96.214050 
	C325.291229,98.123528 326.473755,101.167961 327.692566,101.389969 
	C330.522247,101.905388 333.607391,101.018448 336.016571,100.106033 
M162.149765,93.742676 
	C162.159393,96.059097 162.037140,98.388145 162.257019,100.684433 
	C162.325150,101.395958 163.322784,102.018478 163.894852,102.681732 
	C164.600708,101.984512 165.841080,101.339684 165.915482,100.580566 
	C166.172577,97.957870 166.150543,95.286133 165.960022,92.652954 
	C165.892990,91.726753 165.033752,90.857872 164.536224,89.962814 
	C163.742599,90.921600 162.948959,91.880379 162.149765,93.742676 
M185.147995,90.637527 
	C185.147247,89.813698 185.340378,88.927307 185.099518,88.180962 
	C184.753128,87.107552 184.090897,86.136063 183.563477,85.121071 
	C183.027893,86.119308 182.075256,87.099228 182.030472,88.119011 
	C181.857178,92.065308 181.897598,96.027245 182.050842,99.975883 
	C182.078613,100.691063 183.010788,101.371140 183.525421,102.067429 
	C184.056274,101.376709 184.996506,100.713707 185.045471,99.990372 
	C185.234222,97.201584 185.138123,94.393517 185.147995,90.637527 
M337.356476,47.919952 
	C337.209442,46.962933 337.062408,46.005913 336.915375,45.048889 
	C335.965790,45.381454 335.016174,45.714016 334.066589,46.046589 
	C334.876282,46.692665 335.685974,47.338741 337.356476,47.919952 
z"/>
<path fill="#4A286F" opacity="1.000000" stroke="none" 
	d="
M42.027203,11.088674 
	C43.275024,10.630642 44.522850,10.172611 46.228706,9.558128 
	C47.764275,9.979318 48.841812,10.556957 49.949913,11.484290 
	C51.271946,13.142247 52.563419,14.450512 53.854889,15.758776 
	C52.138733,16.898945 50.422573,18.039114 48.186508,19.549147 
	C45.687855,21.582935 43.709106,23.246861 41.429981,25.023464 
	C39.669930,26.735928 38.210251,28.335716 36.493996,30.050365 
	C35.823318,30.773872 35.409222,31.382519 34.735992,32.141193 
	C33.937595,33.117886 33.398327,33.944550 32.579426,34.962410 
	C31.207840,37.114906 30.115883,39.076202 28.765059,41.235313 
	C28.005278,42.622440 27.504366,43.811749 26.735210,45.214050 
	C25.963850,46.946011 25.460735,48.464970 24.694248,50.240181 
	C21.292593,59.797642 20.022673,69.284813 21.628666,79.454514 
	C22.068798,81.896942 22.468666,83.939079 22.884325,86.334648 
	C23.497559,88.414474 24.095003,90.140869 24.744343,92.261780 
	C26.192831,94.946129 27.589430,97.235970 28.932739,99.783417 
	C28.868696,100.654427 28.619417,101.405136 28.881966,101.861206 
	C36.016781,114.254829 46.209080,123.203644 59.439663,128.625916 
	C60.099087,128.896179 61.142746,128.228882 62.362930,128.034698 
	C65.840424,129.393036 68.962471,130.714798 72.289642,132.319916 
	C73.958397,133.563705 75.422035,134.524155 76.885674,135.484589 
	C73.891434,135.649811 70.897194,135.815018 67.188866,135.665588 
	C65.048080,134.915070 63.648098,134.334412 62.190598,134.065475 
	C45.608212,131.005798 32.779945,121.885857 22.938978,108.689293 
	C2.409815,81.160057 8.487103,40.474228 35.527641,19.906231 
	C38.535774,17.618137 41.567860,15.284769 42.027203,11.088674 
z"/>
<path fill="#3D3D3F" opacity="1.000000" stroke="none" 
	d="
M58.290916,65.007935 
	C58.290955,60.052990 58.290955,55.596104 58.290955,50.719620 
	C61.749050,50.719620 64.768456,50.388283 67.660927,50.850796 
	C69.254135,51.105560 71.189659,52.362122 72.013756,53.739624 
	C75.561661,59.670006 78.755119,65.812431 82.252159,72.196182 
	C86.053955,65.772713 89.559830,59.849205 93.065704,53.925705 
	C93.567390,54.139759 94.069077,54.353813 94.570770,54.567867 
	C90.611649,65.166252 86.652534,75.764633 82.612595,86.579376 
	C84.168953,86.958000 85.424622,87.263466 87.233734,87.703575 
	C85.285500,91.645386 83.421158,95.417450 80.874268,100.570488 
	C77.433929,93.903381 74.482124,88.183022 71.530319,82.462662 
	C71.260941,82.471161 70.991554,82.479652 70.722176,82.488152 
	C70.722176,89.606758 70.722176,96.725365 70.722176,104.032227 
	C66.282890,104.032227 62.516769,104.032227 58.290882,104.032227 
	C58.290882,91.063507 58.290882,78.284760 58.290916,65.007935 
z"/>
<path fill="#753192" opacity="1.000000" stroke="none" 
	d="
M41.629929,10.992582 
	C41.567860,15.284769 38.535774,17.618137 35.527641,19.906231 
	C8.487103,40.474228 2.409815,81.160057 22.938978,108.689293 
	C32.779945,121.885857 45.608212,131.005798 62.190598,134.065475 
	C63.648098,134.334412 65.048080,134.915070 66.739853,135.602707 
	C36.808254,135.512054 9.259658,111.533821 5.077348,81.628120 
	C1.044830,52.793514 10.641186,29.659563 34.810604,13.004507 
	C36.590370,11.778078 39.075470,11.575214 41.629929,10.992582 
z"/>
<path fill="#3F2460" opacity="1.000000" stroke="none" 
	d="
M72.084526,132.036560 
	C68.962471,130.714798 65.840424,129.393036 62.039867,127.905090 
	C47.817158,121.271942 38.989906,110.462860 33.039413,96.587074 
	C32.065788,91.118027 31.108973,86.052071 30.128023,80.653915 
	C30.031914,79.884834 29.959936,79.447945 29.949493,78.681671 
	C29.982500,77.907944 29.953968,77.463615 30.027390,76.622513 
	C31.562225,69.892639 32.995110,63.559532 34.609791,57.003456 
	C34.886883,56.042694 34.982174,55.304901 35.389717,54.438797 
	C36.275906,53.192673 36.849838,52.074860 37.654663,50.684128 
	C39.267693,48.277840 40.649830,46.144474 42.275913,43.871841 
	C43.067673,42.991657 43.615486,42.250736 44.411964,41.353828 
	C45.144135,40.600739 45.627640,40.003635 46.391071,39.258587 
	C47.824783,37.952042 48.978565,36.793446 50.441750,35.455936 
	C53.541126,33.208031 56.331100,31.139036 59.121075,29.070042 
	C61.834087,28.098806 64.547096,27.127571 67.260109,26.156334 
	C67.486023,26.562277 67.711945,26.968220 67.937859,27.374161 
	C66.230408,28.598557 64.579010,29.911459 62.806923,31.033791 
	C42.921406,43.628029 33.224655,61.967331 36.435364,85.028625 
	C39.693645,108.431625 55.049728,122.769829 77.526016,130.453491 
	C75.910065,131.297134 73.997299,131.666840 72.084526,132.036560 
z"/>
<path fill="#3B3B3D" opacity="1.000000" stroke="none" 
	d="
M110.047615,103.183762 
	C107.043175,103.470711 104.008682,104.095406 101.053177,103.832428 
	C100.200836,103.756584 99.002625,101.148010 98.946342,99.663338 
	C98.710030,93.429993 98.846542,87.182518 98.846542,82.008827 
	C95.970299,82.701042 93.074684,83.397919 90.179070,84.094788 
	C89.948578,83.595596 89.718086,83.096397 89.487587,82.597206 
	C96.104134,72.775314 102.720680,62.953426 109.767273,53.310276 
	C110.357407,53.754715 110.589821,53.916553 110.894569,53.974537 
	C110.951653,69.684570 111.008743,85.394600 110.765549,101.695862 
	C110.269547,102.559669 110.130333,102.858551 110.047615,103.183762 
z"/>
<path fill="#424244" opacity="1.000000" stroke="none" 
	d="
M174.013519,77.954285 
	C172.369171,77.954285 170.724808,77.954285 168.765625,77.954285 
	C168.765625,66.499748 168.765625,55.116516 168.765625,43.428719 
	C170.722260,43.428719 172.609451,43.428719 174.844391,43.428719 
	C174.971603,46.333675 175.100098,49.267376 175.254669,52.796856 
	C178.188431,52.796856 180.989883,52.598324 183.753021,52.839191 
	C189.105331,53.305756 191.648209,55.794376 191.939880,61.054638 
	C192.188370,65.536003 192.263123,70.065483 191.847870,74.520836 
	C191.729172,75.794380 189.635788,76.883881 188.447891,78.057770 
	C187.294083,76.857178 185.362595,75.782448 185.143768,74.430511 
	C184.644882,71.348145 184.990829,68.129898 184.983887,64.966881 
	C184.969757,58.541027 184.540939,58.111038 178.205154,58.123211 
	C177.377960,58.124798 176.550781,58.123425 175.086182,58.123425 
	C175.086182,64.207413 175.086182,70.147552 174.767303,76.593536 
	C174.303452,77.384346 174.158478,77.669312 174.013519,77.954285 
z"/>
<path fill="#3D3D3F" opacity="1.000000" stroke="none" 
	d="
M205.332687,78.041931 
	C198.323685,77.497200 195.631073,74.313614 196.884048,68.409958 
	C197.564041,65.205956 198.993500,63.363155 202.986389,63.715824 
	C207.164932,64.084892 211.446960,63.282032 215.706451,62.140499 
	C211.143616,54.946575 204.064774,59.754398 198.379913,57.371132 
	C198.379913,56.143520 198.379913,54.725780 198.379913,53.961990 
	C202.838333,53.575359 207.239410,53.521103 211.506302,52.736786 
	C216.316605,51.852589 222.712982,55.941952 222.535263,61.082443 
	C222.357971,66.210243 222.496384,71.348946 222.496384,77.139534 
	C216.789597,77.449013 211.288910,77.747314 205.332687,78.041931 
M212.317413,72.980255 
	C216.892151,73.443214 215.943848,70.704262 215.408737,67.754547 
	C213.856064,67.754547 212.502579,67.546158 211.241013,67.798096 
	C208.644943,68.316513 203.981949,65.996796 204.073456,70.466324 
	C204.164612,74.917557 208.844193,72.221527 212.317413,72.980255 
z"/>
<path fill="#3C3C3E" opacity="1.000000" stroke="none" 
	d="
M275.734741,76.489914 
	C270.259766,72.003746 268.568298,66.229866 270.777863,60.336258 
	C272.884369,54.717556 277.527374,51.805698 284.069092,52.000633 
	C290.290070,52.186016 294.956573,55.297550 296.357178,60.975281 
	C297.586426,65.958481 297.275421,71.152306 293.240540,74.862335 
	C288.145599,79.547112 282.124329,79.363716 275.734741,76.489914 
M282.310394,73.147415 
	C283.734467,72.806808 285.348450,72.784050 286.547852,72.067413 
	C290.526276,69.690239 290.641388,65.902489 289.434692,62.033894 
	C288.323212,58.470493 285.549347,57.138931 282.002655,57.964695 
	C277.829376,58.936337 276.269989,62.269516 277.160461,65.909378 
	C277.836151,68.671326 280.145020,71.033730 282.310394,73.147415 
z"/>
<path fill="#434345" opacity="1.000000" stroke="none" 
	d="
M243.303253,52.650925 
	C244.248749,54.054070 244.759476,55.423992 245.483292,57.365536 
	C242.489090,57.609650 240.270309,57.790546 238.116714,57.966125 
	C236.441086,70.482231 237.215195,72.311058 244.695068,73.357468 
	C244.695068,74.739494 244.695068,76.155975 244.695068,78.172607 
	C241.495758,77.971390 238.105637,78.484406 235.412399,77.347115 
	C233.441422,76.514816 231.473679,73.660126 231.118744,71.447868 
	C230.443344,67.238358 230.922974,62.843533 230.922974,58.150360 
	C229.239319,57.871422 227.719086,57.619553 224.677170,57.115578 
	C226.813293,54.699524 228.270493,53.051353 229.727707,51.403179 
	C230.076279,51.615700 230.424866,51.828217 230.773438,52.040733 
	C230.773438,49.266575 230.773438,46.492413 230.773438,43.421803 
	C233.024155,43.421803 234.941162,43.421803 237.472687,43.421803 
	C237.472687,46.199978 237.472687,49.087990 237.472687,52.319641 
	C239.659637,52.440445 241.264053,52.529072 243.303253,52.650925 
z"/>
<path fill="#3D3D3F" opacity="1.000000" stroke="none" 
	d="
M322.987946,77.932877 
	C318.972565,78.732925 317.471710,76.994980 317.858582,73.058601 
	C318.053162,71.078911 317.892670,69.064316 317.892456,67.065506 
	C317.891602,57.926300 317.891571,57.926300 308.002747,58.228046 
	C308.002747,62.761440 308.005890,67.348099 308.002014,71.934753 
	C307.996582,78.325768 307.994324,78.325768 301.377686,77.725494 
	C301.377686,69.636780 301.377686,61.521927 301.377686,53.977406 
	C304.943085,53.559074 308.473755,52.938976 312.024811,52.783287 
	C315.951599,52.611137 320.117065,52.074947 323.113342,56.638767 
	C323.123840,64.296577 323.055908,71.114723 322.987946,77.932877 
z"/>
<path fill="#3C3C3E" opacity="1.000000" stroke="none" 
	d="
M116.007500,68.437088 
	C115.989204,65.851273 115.768112,63.656792 116.069344,61.536522 
	C116.788643,56.473610 120.326233,53.761642 125.487900,53.843674 
	C128.813736,53.896530 132.165695,53.502796 135.458496,53.812981 
	C136.675797,53.927654 137.757339,55.483749 139.162109,56.587822 
	C133.608856,60.316357 125.365311,53.831715 122.721687,63.824848 
	C128.371338,63.824848 133.254974,63.824848 138.138611,63.824848 
	C138.251511,64.436516 138.364410,65.048180 138.477310,65.659843 
	C134.617691,70.724998 128.124435,66.267532 123.507805,68.588730 
	C124.938774,73.532158 127.300987,74.565750 135.064880,73.944603 
	C136.233231,73.851128 137.486557,74.819687 138.435837,75.905479 
	C122.158714,78.866806 119.324020,77.871124 116.007500,68.437088 
z"/>
<path fill="#3D3D3F" opacity="1.000000" stroke="none" 
	d="
M151.636780,77.930176 
	C142.672714,77.072754 138.644409,66.025169 143.188416,58.216465 
	C144.986313,55.126850 147.094208,52.943375 151.464996,53.741241 
	C155.307755,54.442711 159.379868,53.887859 164.359344,54.948685 
	C163.152527,55.980057 162.054840,57.206558 160.696167,57.966415 
	C159.934723,58.392258 158.741104,58.043449 157.742218,58.046986 
	C150.811203,58.071541 148.656509,59.666939 148.473923,64.908051 
	C148.294815,70.049393 151.659348,73.381088 157.545639,73.766151 
	C159.508942,73.894592 161.487747,73.786430 163.459457,73.786430 
	C163.773178,74.235931 164.086899,74.685432 164.400635,75.134933 
	C163.118408,76.104614 161.932022,77.696869 160.533676,77.912109 
	C157.772629,78.337097 154.894196,77.999588 151.636780,77.930176 
z"/>
<path fill="#3B3B3D" opacity="1.000000" stroke="none" 
	d="
M363.664551,58.009872 
	C361.552856,58.036713 359.892090,57.996674 358.234283,58.049881 
	C353.021973,58.217190 351.115234,59.982018 350.954041,64.726852 
	C350.771149,70.110878 352.302124,71.993782 357.589539,72.615448 
	C359.393555,72.827568 361.316284,72.415695 363.032104,72.868034 
	C364.375549,73.222214 365.483459,74.469788 366.696014,75.320419 
	C366.506073,75.789963 366.316132,76.259514 366.126190,76.729057 
	C362.972015,77.154732 359.816650,77.948250 356.663849,77.938309 
	C346.499329,77.906258 340.798401,69.004608 344.885864,59.701950 
	C346.553314,55.907021 348.721558,53.008541 353.832642,53.786377 
	C357.688385,54.373165 361.705048,53.902493 366.851501,53.902493 
	C365.633179,55.721619 364.875000,56.853642 363.664551,58.009872 
z"/>
<path fill="#3A3A3C" opacity="1.000000" stroke="none" 
	d="
M250.017654,52.926315 
	C254.052353,52.874279 258.087067,52.822239 262.636810,53.073704 
	C263.421112,53.319233 263.690399,53.261257 263.959656,53.203281 
	C265.377441,56.117485 266.795258,59.031693 268.656891,62.858215 
	C265.112091,62.858215 263.356049,62.858215 261.174042,62.858215 
	C260.893402,59.835140 260.761749,56.057457 255.448639,57.903065 
	C255.448639,63.999763 255.448639,70.106033 255.448639,76.354553 
	C253.748718,76.955963 252.272812,77.478119 250.280914,77.736732 
	C249.574799,77.235542 249.331985,77.080299 249.036484,77.007454 
	C248.969391,69.644043 248.902283,62.280632 249.158386,54.347763 
	C249.660263,53.494308 249.838959,53.210308 250.017654,52.926315 
z"/>
<path fill="#9DA0A6" opacity="1.000000" stroke="none" 
	d="
M212.347946,95.138176 
	C208.595230,94.498451 207.126038,92.078049 208.264191,89.333893 
	C209.027359,87.493797 211.463867,85.597092 213.453537,85.185646 
	C216.747498,84.504486 220.284866,85.000427 224.618469,85.000427 
	C221.806564,91.273735 213.522766,84.437790 211.739075,91.906563 
	C214.756226,92.044449 217.453629,91.549774 219.567886,92.439995 
	C221.637741,93.311501 224.137619,95.349800 224.606155,97.315216 
	C225.281860,100.149574 222.988007,102.206444 219.859650,102.435013 
	C217.052582,102.640114 214.223068,102.775986 211.418701,102.636360 
	C210.575806,102.594398 209.783981,101.526909 208.968750,100.929214 
	C209.808411,100.356514 210.598083,99.397705 211.496826,99.281342 
	C214.561264,98.884560 217.664108,98.784492 220.752304,98.571175 
	C220.787277,97.785172 220.822250,96.999168 220.857224,96.213173 
	C218.161530,95.868744 215.465820,95.524323 212.347946,95.138176 
z"/>
<path fill="#444445" opacity="1.000000" stroke="none" 
	d="
M334.047211,52.863499 
	C335.093231,52.774437 336.139221,52.685371 337.665894,52.976891 
	C338.430542,53.571484 338.714478,53.785496 338.998474,53.999512 
	C339.062073,61.362000 339.125702,68.724487 338.874115,76.625610 
	C338.288940,77.332710 338.113098,77.570732 338.031372,77.878296 
	C336.237518,77.878296 334.443634,77.878296 332.304565,77.878296 
	C332.304565,69.667618 332.304565,61.588955 332.785278,53.434792 
	C333.526367,53.194027 333.786804,53.028763 334.047211,52.863499 
z"/>
<path fill="#999DA3" opacity="1.000000" stroke="none" 
	d="
M292.711487,89.916290 
	C298.176147,90.367508 301.468018,96.797043 298.873810,101.155434 
	C298.607147,101.603378 297.805359,102.030830 297.319946,101.965118 
	C296.852081,101.901802 296.184418,101.231895 296.109497,100.749969 
	C295.907379,99.450043 296.208740,98.044746 295.871490,96.800179 
	C295.501221,95.433876 294.640869,94.200401 293.994080,92.909042 
	C293.303284,94.116783 292.400696,95.257088 291.988007,96.553337 
	C291.651337,97.610954 292.165955,98.946983 291.805847,99.987457 
	C291.513062,100.833420 290.482849,101.424149 289.779663,102.128052 
	C289.223999,101.443138 288.309052,100.816414 288.186737,100.061325 
	C287.924438,98.441452 288.284119,96.712555 287.963013,95.113899 
	C287.795471,94.279922 286.724060,93.627502 286.060913,92.893074 
	C285.411011,93.649292 284.297150,94.350990 284.200592,95.172249 
	C283.939636,97.392944 284.111237,99.664467 284.111237,102.274666 
	C280.522980,100.613625 280.134552,98.223091 281.563995,89.915558 
	C285.044220,89.915558 288.646729,89.915558 292.711487,89.916290 
z"/>
<path fill="#9B9EA4" opacity="1.000000" stroke="none" 
	d="
M234.735565,99.232994 
	C235.103149,96.755676 235.034851,94.578514 235.367310,92.464355 
	C235.506195,91.581093 236.496735,90.831757 237.100067,90.021530 
	C237.728409,90.779266 238.856247,91.510002 238.898895,92.299377 
	C239.086899,95.778198 239.387558,99.352417 238.764801,102.729294 
	C238.468582,104.335434 236.422394,106.278938 234.764908,106.810951 
	C232.572556,107.514648 229.984070,106.984207 227.565826,106.984207 
	C227.458633,106.374748 227.351440,105.765282 227.244232,105.155823 
	C229.635651,104.655006 232.027054,104.154198 234.416870,103.646469 
	C226.672165,100.620186 226.343948,100.196968 227.048752,92.867592 
	C227.141037,91.907936 227.887222,91.011162 228.330536,90.085251 
	C228.953430,91.012329 229.859726,91.865211 230.126801,92.885429 
	C230.453857,94.134895 229.743729,95.897987 230.388519,96.764503 
	C231.318405,98.014160 233.063980,98.656868 234.735565,99.232994 
z"/>
<path fill="#ECE5F0" opacity="1.000000" stroke="none" 
	d="
M58.837753,28.876926 
	C56.331100,31.139036 53.541126,33.208031 50.401810,35.060936 
	C47.278435,31.533489 44.504395,28.222137 41.730358,24.910786 
	C43.709106,23.246861 45.687855,21.582935 47.962521,19.826057 
	C51.690441,22.716673 55.122437,25.700241 58.837753,28.876926 
z"/>
<path fill="#9A9EA4" opacity="1.000000" stroke="none" 
	d="
M357.840515,102.724617 
	C354.893005,103.005562 353.816467,101.993408 353.956573,99.349243 
	C354.131317,96.050797 353.821533,92.722221 354.078278,89.434570 
	C354.194427,87.946983 355.172516,86.526711 355.759583,85.075897 
	C356.702118,86.362488 357.644653,87.649086 359.348511,89.974892 
	C358.423096,89.412422 358.700195,89.726822 358.979614,89.728859 
	C363.396484,89.761139 367.059113,90.872009 366.973297,96.226357 
	C366.881348,101.963585 362.563995,102.423988 357.840515,102.724617 
M361.522675,92.854767 
	C356.855530,92.341148 356.403290,93.174629 357.876282,99.574974 
	C363.417908,99.951935 364.603943,98.191635 361.522675,92.854767 
z"/>
<path fill="#9B9EA4" opacity="1.000000" stroke="none" 
	d="
M131.678864,90.701370 
	C130.208893,94.072105 129.044769,97.179787 127.528015,100.104591 
	C127.033630,101.057922 125.609123,102.089066 124.629097,102.070625 
	C123.675957,102.052689 122.345596,100.929428 121.876297,99.956177 
	C119.664879,95.370056 117.692429,90.668686 116.274429,85.584846 
	C122.424904,86.888077 121.395424,93.490616 124.528168,96.992775 
	C128.322739,93.897346 126.534409,86.443039 133.873444,84.590919 
	C132.995087,87.095390 132.421341,88.731300 131.678864,90.701370 
z"/>
<path fill="#979AA0" opacity="1.000000" stroke="none" 
	d="
M348.321838,90.262894 
	C349.785278,93.988091 350.842346,97.559364 352.215576,102.198875 
	C347.556946,102.198875 344.424683,102.532013 341.426514,102.042992 
	C340.138519,101.832909 338.040833,99.666283 338.232880,98.829788 
	C338.570526,97.359085 340.173065,95.780647 341.642792,95.080795 
	C343.090515,94.391418 345.030731,94.736267 346.754852,94.627342 
	C346.829590,94.142838 346.904327,93.658333 346.979095,93.173828 
	C344.380981,92.629951 341.782898,92.086075 339.184784,91.542198 
	C339.195343,91.064453 339.205933,90.586716 339.216492,90.108971 
	C342.116150,90.108971 345.015808,90.108971 348.321838,90.262894 
z"/>
<path fill="#989CA2" opacity="1.000000" stroke="none" 
	d="
M159.239960,95.214577 
	C158.941696,97.851326 158.639191,100.033966 158.336670,102.216599 
	C157.860947,102.120720 157.385223,102.024834 156.909500,101.928955 
	C154.081039,93.097145 154.081039,93.097145 151.273148,93.233299 
	C151.087158,96.094910 150.898254,99.001457 150.700287,102.047363 
	C146.964233,100.447044 146.547424,87.969147 150.157578,84.791740 
	C150.644653,86.463432 151.067886,87.916000 151.574982,89.656418 
	C154.640991,90.350533 159.452606,88.943703 159.239960,95.214577 
z"/>
<path fill="#9A9EA4" opacity="1.000000" stroke="none" 
	d="
M275.616211,99.949783 
	C276.033539,100.839729 276.057037,101.717430 276.080505,102.595131 
	C273.263855,101.938217 269.930695,101.969208 267.814148,100.379913 
	C266.428558,99.339432 265.735016,95.300888 266.661224,93.781670 
	C267.829346,91.865685 270.877197,90.920250 273.285706,90.010384 
	C274.480164,89.559151 276.058441,90.123886 277.651093,91.293007 
	C275.166443,92.005791 272.681793,92.718567 270.197144,93.431351 
	C270.246582,93.822647 270.296051,94.213943 270.345520,94.605232 
	C272.746216,94.836075 275.146912,95.066917 277.547607,95.297760 
	C277.552948,95.778328 277.558258,96.258896 277.563568,96.739456 
	C275.166931,97.029320 272.770264,97.319176 270.373627,97.609032 
	C270.311890,98.058029 270.250122,98.507034 270.188385,98.956032 
	C271.866394,99.283203 273.544403,99.610367 275.616211,99.949783 
z"/>
<path fill="#989CA2" opacity="1.000000" stroke="none" 
	d="
M311.917053,92.176407 
	C309.787231,92.364670 308.073181,92.530647 306.359100,92.696632 
	C306.338928,93.187065 306.318756,93.677498 306.298553,94.167938 
	C307.885651,94.411575 309.659729,94.294601 311.010010,94.994881 
	C312.520447,95.778236 313.646667,97.302376 314.940094,98.504135 
	C313.676727,99.748680 312.586700,101.724861 311.111328,102.074326 
	C308.603851,102.668251 305.853760,102.237755 303.205627,102.237755 
	C303.178406,101.657913 303.151184,101.078079 303.123932,100.498238 
	C305.946289,100.100281 308.768677,99.702324 311.591034,99.304367 
	C311.585693,98.815254 311.580353,98.326149 311.575012,97.837036 
	C309.761993,97.604828 307.823730,97.691559 306.173950,97.043678 
	C304.748016,96.483704 303.649902,95.088959 302.406891,94.063232 
	C303.577271,92.703232 304.509003,90.672165 305.977356,90.150017 
	C307.889923,89.469894 310.228180,89.986954 312.383270,89.988831 
	C312.366425,90.710594 312.349609,91.432365 311.917053,92.176407 
z"/>
<path fill="#979AA0" opacity="1.000000" stroke="none" 
	d="
M246.865143,92.346375 
	C246.554352,93.198883 246.514542,94.583717 246.733643,94.625969 
	C248.184387,94.905746 249.899414,94.483749 251.120056,95.099579 
	C252.333954,95.712013 253.792542,97.258995 253.815186,98.422035 
	C253.838806,99.634911 252.421936,101.768555 251.379028,101.939560 
	C248.428162,102.423416 245.346375,102.108917 242.316177,102.108917 
	C242.264481,101.570999 242.212784,101.033081 242.161102,100.495171 
	C244.959702,100.134407 247.758301,99.773643 250.556915,99.412880 
	C250.593567,98.940933 250.630219,98.468987 250.666870,97.997040 
	C248.951279,97.715691 247.057007,97.792572 245.570877,97.051231 
	C244.113754,96.324371 243.071945,94.765015 241.847870,93.571030 
	C243.097672,92.364304 244.171936,90.492783 245.638138,90.105652 
	C247.874863,89.515076 250.382599,89.950859 252.775253,89.950859 
	C252.825302,90.494148 252.875351,91.037437 252.925400,91.580734 
	C251.035553,91.806374 249.145706,92.032021 246.865143,92.346375 
z"/>
<path fill="#979AA0" opacity="1.000000" stroke="none" 
	d="
M188.061401,93.492470 
	C190.796768,88.648750 194.808594,89.957520 198.934326,91.370087 
	C196.621964,91.981964 194.309601,92.593842 191.997253,93.205727 
	C192.029266,93.607887 192.061279,94.010056 192.093292,94.412216 
	C194.324371,94.754494 196.555450,95.096779 198.786530,95.439056 
	C198.820953,95.807098 198.855377,96.175140 198.889801,96.543182 
	C196.571609,96.980957 194.253418,97.418732 191.935226,97.856506 
	C191.905792,98.275482 191.876373,98.694466 191.846954,99.113441 
	C194.153885,99.580643 196.460800,100.047844 198.767731,100.515045 
	C198.740021,101.034897 198.712326,101.554756 198.684616,102.074608 
	C195.865463,101.890877 192.404388,102.626556 190.422867,101.243088 
	C188.726349,100.058601 188.725006,96.446075 188.061401,93.492470 
z"/>
<path fill="#989CA2" opacity="1.000000" stroke="none" 
	d="
M144.795822,90.961617 
	C142.577911,91.974594 140.331635,92.565086 138.085358,93.155586 
	C138.089233,93.574394 138.093109,93.993202 138.097000,94.412010 
	C140.335968,94.727547 142.574936,95.043083 144.813919,95.358620 
	C144.877487,95.748085 144.941071,96.137550 145.004639,96.527016 
	C142.754166,96.926811 140.503708,97.326607 138.253235,97.726410 
	C138.204407,98.128555 138.155563,98.530701 138.106735,98.932846 
	C140.357925,99.490036 142.609116,100.047226 144.860306,100.604416 
	C144.788849,101.170052 144.717377,101.735687 144.645920,102.301323 
	C141.722031,101.894539 138.258179,102.288429 136.059799,100.805847 
	C134.536621,99.778610 134.001953,96.043434 134.373428,93.735107 
	C134.955704,90.116852 138.298752,89.740646 141.442322,89.942032 
	C142.558868,90.013565 143.659531,90.332916 144.795822,90.961617 
z"/>
<path fill="#9EA2A7" opacity="1.000000" stroke="none" 
	d="
M172.045959,95.175430 
	C171.571625,101.546860 176.897141,98.927170 180.383347,101.063339 
	C176.995361,103.740257 173.789810,102.877312 171.161209,101.506264 
	C168.254761,99.990295 167.239395,97.124870 168.585175,93.804962 
	C170.212036,89.791718 173.363602,88.901245 180.271347,91.040520 
	C177.165192,92.456551 174.638733,93.608315 172.045959,95.175430 
z"/>
<path fill="#979AA0" opacity="1.000000" stroke="none" 
	d="
M262.659180,102.226471 
	C258.594116,102.434982 257.935852,100.271812 257.840057,97.165535 
	C257.774170,95.029137 256.925385,92.916870 256.326996,90.370316 
	C256.663300,89.607216 257.248962,88.091469 257.999481,86.662300 
	C258.323120,86.046036 258.987915,85.608932 259.497711,85.090439 
	C260.003540,85.611282 260.602753,86.070267 260.996826,86.665138 
	C261.987213,88.160118 262.884949,89.716492 263.851471,91.300117 
	C259.941833,93.756378 259.735626,96.649376 263.752655,100.192772 
	C263.958282,100.374146 263.315430,101.517471 262.659180,102.226471 
z"/>
<path fill="#979AA0" opacity="1.000000" stroke="none" 
	d="
M336.302795,100.402977 
	C333.607391,101.018448 330.522247,101.905388 327.692566,101.389969 
	C326.473755,101.167961 325.291229,98.123528 324.971405,96.214050 
	C324.510254,93.460815 324.700256,90.561340 324.927277,87.749687 
	C325.009613,86.730080 325.997345,85.783600 326.571991,84.803757 
	C327.085693,84.957115 327.599396,85.110474 328.113098,85.263840 
	C328.113098,87.195129 328.111542,89.126427 328.113373,91.057716 
	C328.121307,99.393272 328.121643,99.393272 336.302795,100.402977 
z"/>
<path fill="#DED3E6" opacity="1.000000" stroke="none" 
	d="
M53.955112,6.842706 
	C54.952656,5.895952 56.147350,3.999886 56.915157,4.159342 
	C61.294788,5.068891 65.572708,6.468197 69.885185,7.701075 
	C69.807564,8.305327 69.729942,8.909580 69.652321,9.513834 
	C68.029350,10.023030 66.406387,10.532227 64.360191,10.665707 
	C62.459026,4.702856 58.581486,8.691261 55.570244,8.086613 
	C54.870052,7.560291 54.412582,7.201498 53.955112,6.842706 
z"/>
<path fill="#734F91" opacity="1.000000" stroke="none" 
	d="
M72.289642,132.319916 
	C73.997299,131.666840 75.910065,131.297134 77.888535,130.560135 
	C82.249100,131.017899 86.543976,131.842941 90.838852,132.667984 
	C90.844925,133.001572 90.850998,133.335159 90.857063,133.668747 
	C86.470146,134.310135 82.083221,134.951523 77.290985,135.538757 
	C75.422035,134.524155 73.958397,133.563705 72.289642,132.319916 
z"/>
<path fill="#353538" opacity="1.000000" stroke="none" 
	d="
M92.165924,90.972420 
	C90.405479,94.878159 88.959702,98.978790 86.723251,102.589706 
	C85.878105,103.954285 83.206306,104.187515 81.367149,104.936455 
	C81.083717,104.565727 80.800278,104.195000 80.516846,103.824265 
	C84.191605,99.715134 87.866364,95.605995 91.824646,91.249321 
	C92.108177,91.001778 92.165924,90.972420 92.165924,90.972420 
z"/>
<path fill="#A4A8AD" opacity="1.000000" stroke="none" 
	d="
M162.152542,93.290924 
	C162.948959,91.880379 163.742599,90.921600 164.536224,89.962814 
	C165.033752,90.857872 165.892990,91.726753 165.960022,92.652954 
	C166.150543,95.286133 166.172577,97.957870 165.915482,100.580566 
	C165.841080,101.339684 164.600708,101.984512 163.894852,102.681732 
	C163.322784,102.018478 162.325150,101.395958 162.257019,100.684433 
	C162.037140,98.388145 162.159393,96.059097 162.152542,93.290924 
z"/>
<path fill="#94989E" opacity="1.000000" stroke="none" 
	d="
M185.148102,91.115082 
	C185.138123,94.393517 185.234222,97.201584 185.045471,99.990372 
	C184.996506,100.713707 184.056274,101.376709 183.525421,102.067429 
	C183.010788,101.371140 182.078613,100.691063 182.050842,99.975883 
	C181.897598,96.027245 181.857178,92.065308 182.030472,88.119011 
	C182.075256,87.099228 183.027893,86.119308 183.563477,85.121071 
	C184.090897,86.136063 184.753128,87.107552 185.099518,88.180962 
	C185.340378,88.927307 185.147247,89.813698 185.148102,91.115082 
z"/>
<path fill="#7A5F95" opacity="1.000000" stroke="none" 
	d="
M53.651848,7.027570 
	C54.412582,7.201498 54.870052,7.560291 55.584564,8.369242 
	C56.518311,10.493156 57.195023,12.166914 57.871731,13.840672 
	C56.743359,14.446900 55.614983,15.053130 54.170750,15.709068 
	C52.563419,14.450512 51.271946,13.142247 50.141045,11.294657 
	C50.220203,9.880212 50.138794,9.005094 50.057384,8.129974 
	C51.154449,7.824128 52.251514,7.518281 53.651848,7.027570 
z"/>
<path fill="#565658" opacity="1.000000" stroke="none" 
	d="
M323.413544,77.963684 
	C323.055908,71.114723 323.123840,64.296577 323.230225,56.973915 
	C323.458832,63.644436 323.648987,70.819466 323.413544,77.963684 
z"/>
<path fill="#A999BB" opacity="1.000000" stroke="none" 
	d="
M58.209862,13.791649 
	C57.195023,12.166914 56.518311,10.493156 55.827286,8.536770 
	C58.581486,8.691261 62.459026,4.702856 63.984230,10.655766 
	C62.203659,11.928571 60.375824,12.835599 58.209862,13.791649 
z"/>
<path fill="#AC83BE" opacity="1.000000" stroke="none" 
	d="
M49.716824,7.977362 
	C50.138794,9.005094 50.220203,9.880212 50.110481,10.944963 
	C48.841812,10.556957 47.764275,9.979318 46.390915,9.249746 
	C46.056030,5.753849 47.806335,7.021752 49.716824,7.977362 
z"/>
<path fill="#3A3A3C" opacity="1.000000" stroke="none" 
	d="
M336.926086,47.952385 
	C335.685974,47.338741 334.876282,46.692665 334.066589,46.046585 
	C335.016174,45.714016 335.965790,45.381454 336.915375,45.048889 
	C337.062408,46.005913 337.209442,46.962933 336.926086,47.952385 
z"/>
<path fill="#27272A" opacity="1.000000" stroke="none" 
	d="
M333.769897,52.802849 
	C333.786804,53.028763 333.526367,53.194027 333.142822,53.207802 
	C333.177368,52.951603 333.334991,52.846901 333.769897,52.802849 
z"/>
<path fill="#27272A" opacity="1.000000" stroke="none" 
	d="
M263.734802,53.090389 
	C263.690399,53.261257 263.421112,53.319233 263.082214,53.215309 
	C263.178406,53.028107 263.344208,53.002800 263.734802,53.090389 
z"/>
<path fill="#27272A" opacity="1.000000" stroke="none" 
	d="
M249.701584,52.904377 
	C249.838959,53.210308 249.660263,53.494308 249.250763,53.886715 
	C249.141815,53.624229 249.263657,53.253338 249.701584,52.904377 
z"/>
<path fill="#1F1F22" opacity="1.000000" stroke="none" 
	d="
M110.916504,53.699257 
	C110.589821,53.916553 110.357407,53.754715 110.111122,53.288994 
	C110.329422,53.200642 110.633926,53.312309 110.916504,53.699257 
z"/>
<path fill="#27272A" opacity="1.000000" stroke="none" 
	d="
M339.010376,53.668320 
	C338.714478,53.785496 338.430542,53.571484 338.043610,53.102875 
	C338.301208,53.011227 338.661743,53.174175 339.010376,53.668320 
z"/>
<path fill="#353538" opacity="1.000000" stroke="none" 
	d="
M92.088127,91.027222 
	C92.068077,91.052673 92.174171,90.893425 92.174171,90.893425 
	C92.174171,90.893425 91.975800,90.983742 92.070862,90.978081 
	C92.165924,90.972420 92.108177,91.001778 92.088127,91.027222 
z"/>
<path fill="#1F1F22" opacity="1.000000" stroke="none" 
	d="
M174.299744,77.976547 
	C174.158478,77.669312 174.303452,77.384346 174.696991,77.058441 
	C174.825684,77.344604 174.705841,77.671707 174.299744,77.976547 
z"/>
<path fill="#27272A" opacity="1.000000" stroke="none" 
	d="
M249.012070,77.287239 
	C249.331985,77.080299 249.574799,77.235542 249.867065,77.667267 
	C249.642044,77.763237 249.314850,77.665131 249.012070,77.287239 
z"/>
<path fill="#27272A" opacity="1.000000" stroke="none" 
	d="
M338.311005,77.906616 
	C338.113098,77.570732 338.288940,77.332710 338.770752,77.084717 
	C338.851959,77.315109 338.721313,77.625015 338.311005,77.906616 
z"/>
<path fill="#1F1F22" opacity="1.000000" stroke="none" 
	d="
M110.308914,103.093414 
	C110.130333,102.858551 110.269547,102.559669 110.677956,102.159325 
	C110.783836,102.355385 110.677025,102.679222 110.308914,103.093414 
z"/>
<path fill="#9B7CB6" opacity="1.000000" stroke="none" 
	d="
M34.427994,57.226433 
	C32.995110,63.559532 31.562225,69.892639 29.684719,76.657043 
	C26.689533,77.743652 24.138969,78.398941 21.588406,79.054230 
	C20.022673,69.284813 21.292593,59.797642 24.998158,50.385406 
	C28.519629,52.591732 31.473814,54.909084 34.427994,57.226433 
z"/>
<path fill="#66318E" opacity="1.000000" stroke="none" 
	d="
M33.056217,96.990166 
	C38.989906,110.462860 47.817158,121.271942 61.684433,127.868530 
	C61.142746,128.228882 60.099087,128.896179 59.439663,128.625916 
	C46.209080,123.203644 36.016781,114.254829 28.881966,101.861206 
	C28.619417,101.405136 28.868696,100.654427 29.255369,99.611542 
	C29.911148,98.109795 30.191010,97.037514 30.812311,96.053070 
	C31.787907,96.423988 32.422062,96.707077 33.056217,96.990166 
z"/>
<path fill="#BEA9D0" opacity="1.000000" stroke="none" 
	d="
M42.031967,44.011105 
	C40.649830,46.144474 39.267693,48.277840 37.503109,50.284424 
	C34.421753,47.117588 31.722839,44.077541 29.023928,41.037495 
	C30.115883,39.076202 31.207840,37.114906 32.733315,35.281006 
	C36.121880,38.275970 39.076923,41.143536 42.031967,44.011105 
z"/>
<path fill="#DDD1E6" opacity="1.000000" stroke="none" 
	d="
M41.429981,25.023464 
	C44.504395,28.222137 47.278435,31.533489 50.092411,35.239845 
	C48.978565,36.793446 47.824783,37.952042 46.344273,38.883400 
	C42.928558,35.749275 39.839565,32.842392 36.750576,29.935505 
	C38.210251,28.335716 39.669930,26.735928 41.429981,25.023464 
z"/>
<path fill="#AB8EC2" opacity="1.000000" stroke="none" 
	d="
M34.609795,57.003456 
	C31.473814,54.909084 28.519629,52.591732 25.261532,50.129158 
	C25.460735,48.464970 25.963850,46.946011 27.097466,45.220787 
	C31.439070,47.228333 34.790592,49.718796 35.077465,54.567112 
	C34.982174,55.304901 34.886883,56.042694 34.609795,57.003456 
z"/>
<path fill="#C8B6D7" opacity="1.000000" stroke="none" 
	d="
M42.275913,43.871841 
	C39.076923,41.143536 36.121880,38.275970 33.012947,35.089806 
	C33.398327,33.944550 33.937595,33.117886 34.927746,32.410450 
	C38.306854,35.523056 41.235081,38.516434 44.163303,41.509815 
	C43.615486,42.250736 43.067673,42.991657 42.275913,43.871841 
z"/>
<path fill="#AB8EC2" opacity="1.000000" stroke="none" 
	d="
M21.628666,79.454514 
	C24.138969,78.398941 26.689533,77.743652 29.582767,77.053818 
	C29.953968,77.463615 29.982500,77.907944 29.714920,78.873688 
	C29.317867,79.983307 29.216923,80.571518 29.115269,81.514153 
	C29.089308,82.576607 29.064054,83.284645 28.736403,84.204712 
	C26.578846,84.938232 24.723692,85.459724 22.868538,85.981216 
	C22.468666,83.939079 22.068798,81.896942 21.628666,79.454514 
z"/>
<path fill="#D2C2DE" opacity="1.000000" stroke="none" 
	d="
M44.411964,41.353828 
	C41.235081,38.516434 38.306854,35.523056 35.186874,32.260422 
	C35.409222,31.382519 35.823318,30.773872 36.493996,30.050365 
	C39.839565,32.842392 42.928558,35.749275 46.064346,39.031349 
	C45.627640,40.003635 45.144135,40.600739 44.411964,41.353828 
z"/>
<path fill="#B69DCA" opacity="1.000000" stroke="none" 
	d="
M35.389717,54.438797 
	C34.790592,49.718796 31.439070,47.228333 27.365709,45.007790 
	C27.504366,43.811749 28.005278,42.622440 28.765059,41.235313 
	C31.722839,44.077541 34.421753,47.117588 37.272217,50.557343 
	C36.849838,52.074860 36.275906,53.192673 35.389717,54.438797 
z"/>
<path fill="#B298C7" opacity="1.000000" stroke="none" 
	d="
M22.884327,86.334656 
	C24.723692,85.459724 26.578846,84.938232 28.763691,84.642166 
	C29.184080,87.165543 29.274778,89.463478 28.904268,91.824852 
	C27.192858,91.881279 25.942654,91.874275 24.692450,91.867264 
	C24.095003,90.140869 23.497559,88.414474 22.884327,86.334656 
z"/>
<path fill="#C6B2D6" opacity="1.000000" stroke="none" 
	d="
M24.744343,92.261780 
	C25.942654,91.874275 27.192858,91.881279 29.085052,92.096169 
	C29.974985,93.524452 30.222929,94.744843 30.470871,95.965240 
	C30.191010,97.037514 29.911148,98.109795 29.308657,99.353935 
	C27.589430,97.235970 26.192831,94.946129 24.744343,92.261780 
z"/>
<path fill="#754693" opacity="1.000000" stroke="none" 
	d="
M30.812311,96.053070 
	C30.222929,94.744843 29.974985,93.524452 29.546257,92.032738 
	C29.274778,89.463478 29.184080,87.165543 29.066093,84.430145 
	C29.064054,83.284645 29.089308,82.576607 29.371891,81.458351 
	C29.803532,81.027458 29.977844,81.006783 30.152155,80.986115 
	C31.108973,86.052071 32.065788,91.118027 33.039413,96.587074 
	C32.422062,96.707077 31.787907,96.423988 30.812311,96.053070 
z"/>
<path fill="#9B7CB6" opacity="1.000000" stroke="none" 
	d="
M30.128023,80.653915 
	C29.977844,81.006783 29.803532,81.027458 29.372601,81.103935 
	C29.216923,80.571518 29.317867,79.983307 29.653385,79.203072 
	C29.959936,79.447945 30.031914,79.884834 30.128023,80.653915 
z"/>
<path fill="#F8F8F8" opacity="1.000000" stroke="none" 
	d="
M211.861786,72.980194 
	C208.844193,72.221527 204.164612,74.917557 204.073456,70.466324 
	C203.981949,65.996796 208.644943,68.316513 211.241013,67.798096 
	C212.502579,67.546158 213.856064,67.754547 215.408737,67.754547 
	C215.943848,70.704262 216.892151,73.443214 211.861786,72.980194 
z"/>
<path fill="#F9F9F9" opacity="1.000000" stroke="none" 
	d="
M282.018799,73.360664 
	C280.145020,71.033730 277.836151,68.671326 277.160461,65.909378 
	C276.269989,62.269516 277.829376,58.936337 282.002655,57.964695 
	C285.549347,57.138931 288.323212,58.470493 289.434692,62.033894 
	C290.641388,65.902489 290.526276,69.690239 286.547852,72.067413 
	C285.348450,72.784050 283.734467,72.806808 282.018799,73.360664 
z"/>
<path fill="#F4F4F5" opacity="1.000000" stroke="none" 
	d="
M361.854919,93.015717 
	C364.603943,98.191635 363.417908,99.951935 357.876282,99.574974 
	C356.403290,93.174629 356.855530,92.341148 361.854919,93.015717 
z"/>
</svg>