<?xml version="1.0" standalone="no"?>
<!DOCTYPE svg PUBLIC "-//W3C//DTD SVG 20010904//EN"
 "http://www.w3.org/TR/2001/REC-SVG-20010904/DTD/svg10.dtd">
<svg version="1.0" xmlns="http://www.w3.org/2000/svg"
 width="150.000000pt" height="147.000000pt" viewBox="0 0 150.000000 147.000000"
 preserveAspectRatio="xMidYMid meet">

<g transform="translate(0.000000,147.000000) scale(0.100000,-0.100000)"
fill="#000000" stroke="none">
<path d="M0 937 c0 -460 2 -508 19 -570 22 -81 77 -167 132 -206 70 -51 110
-60 274 -63 l150 -3 3 -37 3 -38 75 0 74 0 0 68 c0 78 -20 120 -72 152 -29 18
-51 20 -190 20 -86 0 -169 5 -185 11 -49 18 -113 90 -132 149 -2 8 -6 203 -8
433 l-4 417 260 0 c247 0 261 -1 271 -19 27 -52 -3 -114 -114 -230 -89 -94
-114 -137 -131 -221 -11 -52 -14 -55 -46 -61 -95 -16 -173 -85 -184 -164 -13
-83 -2 -159 29 -199 47 -62 72 -70 256 -76 167 -6 190 -11 253 -54 27 -18 28
-18 50 1 48 43 103 55 249 54 178 -2 226 16 268 99 49 97 31 199 -50 274 -53
50 -85 66 -129 66 -26 0 -29 3 -34 50 -9 72 -50 142 -143 241 -45 47 -89 100
-98 117 -19 37 -21 93 -4 110 9 9 83 12 270 12 l258 0 0 -426 c-1 -267 -5
-434 -11 -446 -5 -10 -30 -40 -54 -66 -25 -26 -45 -53 -45 -59 0 -13 -183 -21
-321 -15 -44 2 -62 -2 -89 -20 -57 -39 -74 -71 -78 -148 l-4 -70 76 0 76 0 0
35 0 35 134 0 c207 0 299 36 372 145 74 112 74 114 74 691 l0 514 -353 0
c-342 0 -355 -1 -372 -20 l-18 -20 -22 20 c-21 19 -34 20 -378 20 l-357 0 0
-503z m830 6 c81 -86 123 -173 128 -265 l4 -68 52 0 c96 -1 176 -58 162 -116
-11 -41 -58 -54 -195 -54 -126 0 -161 -8 -199 -43 -19 -17 -26 -19 -40 -9 -61
43 -76 47 -223 52 -126 4 -150 8 -168 24 -64 58 25 146 148 146 41 0 41 0 41
38 0 54 24 135 56 190 31 54 141 172 159 172 7 0 41 -30 75 -67z"/>
</g>
</svg>
