<?xml version="1.0" encoding="UTF-8"?>
<!DOCTYPE svg PUBLIC "-//W3C//DTD SVG 1.1//EN" "http://www.w3.org/Graphics/SVG/1.1/DTD/svg11.dtd">
<svg xmlns="http://www.w3.org/2000/svg" version="1.1" width="225px" height="225px" style="shape-rendering:geometricPrecision; text-rendering:geometricPrecision; image-rendering:optimizeQuality; fill-rule:evenodd; clip-rule:evenodd" xmlns:xlink="http://www.w3.org/1999/xlink">
<g><path style="opacity:1" fill="#fbfbfb" d="M -0.5,-0.5 C 32.8333,-0.5 66.1667,-0.5 99.5,-0.5C 43.1634,9.83656 9.8301,43.1699 -0.5,99.5C -0.5,66.1667 -0.5,32.8333 -0.5,-0.5 Z"/></g>
<g><path style="opacity:1" fill="#fbfbfb" d="M 121.5,-0.5 C 155.833,-0.5 190.167,-0.5 224.5,-0.5C 224.5,34.8333 224.5,70.1667 224.5,105.5C 218.87,55.7056 192.537,22.2056 145.5,5C 137.495,2.56955 129.495,0.736219 121.5,-0.5 Z"/></g>
<g><path style="opacity:1" fill="#1d1d1d" d="M 99.5,-0.5 C 106.833,-0.5 114.167,-0.5 121.5,-0.5C 129.495,0.736219 137.495,2.56955 145.5,5C 192.537,22.2056 218.87,55.7056 224.5,105.5C 224.5,111.5 224.5,117.5 224.5,123.5C 213.064,182.938 177.398,216.605 117.5,224.5C 111.5,224.5 105.5,224.5 99.5,224.5C 55.7735,217.204 24.9402,193.204 7,152.5C 3.52024,141.583 1.02024,130.583 -0.5,119.5C -0.5,112.833 -0.5,106.167 -0.5,99.5C 9.8301,43.1699 43.1634,9.83656 99.5,-0.5 Z"/></g>
<g><path style="opacity:1" fill="#818181" d="M 127.5,3.5 C 116.168,2.20568 104.835,2.20568 93.5,3.5C 99.0999,2.05712 104.933,1.39045 111,1.5C 116.743,1.35819 122.243,2.02485 127.5,3.5 Z"/></g>
<g><path style="opacity:1" fill="#dddddd" d="M 127.5,3.5 C 174.766,11.9244 205.266,39.2577 219,85.5C 229.406,141.51 209.906,183.343 160.5,211C 118.499,229.997 79.1659,225.664 42.5,198C 19.4274,178.42 6.09409,153.586 2.5,123.5C 1.92189,110.355 2.92189,97.3548 5.5,84.5C 6.78818,77.5802 8.95484,70.9135 12,64.5C 29.3569,30.9663 56.5235,10.633 93.5,3.5C 104.835,2.20568 116.168,2.20568 127.5,3.5 Z"/></g>
<g><path style="opacity:1" fill="#080808" d="M 123.5,5.5 C 132.992,6.1947 141.992,8.52803 150.5,12.5C 147.282,12.6509 146.949,13.4842 149.5,15C 148.833,15.3333 148.167,15.6667 147.5,16C 147.728,16.3988 148.062,16.5654 148.5,16.5C 148.265,21.241 147.598,25.9077 146.5,30.5C 141.927,30.8012 141.26,32.6345 144.5,36C 142.866,36.4935 141.199,36.6602 139.5,36.5C 125.501,31.4382 111.168,30.2715 96.5,33C 90.091,34.6844 83.7577,36.5177 77.5,38.5C 78.1018,36.6621 78.4351,34.8288 78.5,33C 77.552,32.5172 76.552,32.3505 75.5,32.5C 74.3263,31.4863 73.6596,30.153 73.5,28.5C 76.2747,28.5996 78.608,27.2663 80.5,24.5C 81.6888,23.5713 83.0222,23.238 84.5,23.5C 85.7384,25.2143 86.405,27.2143 86.5,29.5C 87.8734,29.6567 89.2068,29.49 90.5,29C 87.9383,23.8624 87.9383,18.6958 90.5,13.5C 92.0847,12.9976 92.5847,11.9976 92,10.5C 87.3035,11.914 86.8035,11.414 90.5,9C 90.1667,8.66667 89.8333,8.33333 89.5,8C 91.0581,7.78997 92.3915,7.28997 93.5,6.5C 103.473,5.63449 113.473,5.30116 123.5,5.5 Z"/></g>
<g><path style="opacity:1" fill="#9a9a9a" d="M 129.5,13.5 C 129.217,12.7109 128.717,12.0442 128,11.5C 127.768,12.7375 127.268,13.7375 126.5,14.5C 126.67,13.1779 126.337,12.0113 125.5,11C 128.595,10.6871 131.595,11.1871 134.5,12.5C 135.583,13.365 135.749,14.365 135,15.5C 133.556,13.8446 131.722,13.178 129.5,13.5 Z"/></g>
<g><path style="opacity:1" fill="#cdcdcd" d="M 108.5,9.5 C 117.658,7.83462 121.825,11.5013 121,20.5C 118.549,26.0891 114.383,27.9224 108.5,26C 103.931,23.4586 102.431,19.6253 104,14.5C 105.193,12.5029 106.693,10.8362 108.5,9.5 Z"/></g>
<g><path style="opacity:1" fill="#0c0c0c" d="M 108.5,11.5 C 115.019,9.85553 118.019,12.3555 117.5,19C 116.585,25.8628 113.418,27.0294 108,22.5C 105.866,18.6471 106.033,14.9805 108.5,11.5 Z"/></g>
<g><path style="opacity:1" fill="#838383" d="M 123.5,5.5 C 113.473,5.30116 103.473,5.63449 93.5,6.5C 94.6085,5.71003 95.9419,5.21003 97.5,5C 106.343,4.17639 115.01,4.34305 123.5,5.5 Z"/></g>
<g><path style="opacity:1" fill="#929292" d="M 129.5,13.5 C 129.5,15.1667 129.5,16.8333 129.5,18.5C 130.833,18.5 132.167,18.5 133.5,18.5C 133.649,19.552 133.483,20.552 133,21.5C 131.644,20.6198 130.144,20.2865 128.5,20.5C 128.198,17.9407 128.532,15.6074 129.5,13.5 Z"/></g>
<g><path style="opacity:1" fill="#e7e7e7" d="M 129.5,13.5 C 128.532,15.6074 128.198,17.9407 128.5,20.5C 128.007,22.8056 127.674,25.139 127.5,27.5C 125.801,27.6602 124.134,27.4935 122.5,27C 123.667,26.5 124.5,25.6667 125,24.5C 125.61,21.1727 126.11,17.8394 126.5,14.5C 127.268,13.7375 127.768,12.7375 128,11.5C 128.717,12.0442 129.217,12.7109 129.5,13.5 Z"/></g>
<g><path style="opacity:1" fill="#d5d5d5" d="M 90.5,13.5 C 87.9383,18.6958 87.9383,23.8624 90.5,29C 89.2068,29.49 87.8734,29.6567 86.5,29.5C 86.405,27.2143 85.7384,25.2143 84.5,23.5C 82.3324,20.5001 79.6657,18.0001 76.5,16C 80.6717,15.1316 83.8383,16.6316 86,20.5C 87.2525,17.9865 87.7525,15.3198 87.5,12.5C 88.791,12.2627 89.791,12.596 90.5,13.5 Z"/></g>
<g><path style="opacity:1" fill="#dbdbdb" d="M 73.5,28.5 C 73.6596,30.153 74.3263,31.4863 75.5,32.5C 75.3957,34.9728 74.3957,35.6394 72.5,34.5C 70.5875,30.3403 68.4209,26.3403 66,22.5C 64.324,23.0611 62.9906,24.0611 62,25.5C 61.5547,23.4057 62.388,21.9057 64.5,21C 67.3904,19.9715 70.2237,18.8048 73,17.5C 73.5,17.8333 74,18.1667 74.5,18.5C 72.4833,19.2191 70.8166,20.3857 69.5,22C 70.7268,24.2979 72.0601,26.4646 73.5,28.5 Z"/></g>
<g><path style="opacity:1" fill="#c5c5c5" d="M 148.5,16.5 C 150.196,16.6854 151.529,17.5187 152.5,19C 150.433,21.9711 150.1,25.1378 151.5,28.5C 153.833,26.5 156.167,24.5 158.5,22.5C 159.167,25.8333 159.833,29.1667 160.5,32.5C 162.351,30.8163 164.018,28.9829 165.5,27C 166.833,26.3333 168.167,26.3333 169.5,27C 165.018,30.6475 160.685,34.4808 156.5,38.5C 155.667,34.5138 155.501,30.5138 156,26.5C 153.603,29.4 150.77,31.7333 147.5,33.5C 146.614,32.675 146.281,31.675 146.5,30.5C 147.598,25.9077 148.265,21.241 148.5,16.5 Z"/></g>
<g><path style="opacity:1" fill="#737373" d="M 7.5,87.5 C 7.70621,90.4951 7.03954,93.1617 5.5,95.5C 5.56513,92.5718 6.2318,89.9052 7.5,87.5 Z"/></g>
<g><path style="opacity:1" fill="#0e0e0e" d="M 93.5,6.5 C 92.3915,7.28997 91.0581,7.78997 89.5,8C 89.8333,8.33333 90.1667,8.66667 90.5,9C 86.8035,11.414 87.3035,11.914 92,10.5C 92.5847,11.9976 92.0847,12.9976 90.5,13.5C 89.791,12.596 88.791,12.2627 87.5,12.5C 87.7525,15.3198 87.2525,17.9865 86,20.5C 83.8383,16.6316 80.6717,15.1316 76.5,16C 79.6657,18.0001 82.3324,20.5001 84.5,23.5C 83.0222,23.238 81.6888,23.5713 80.5,24.5C 78.608,27.2663 76.2747,28.5996 73.5,28.5C 72.0601,26.4646 70.7268,24.2979 69.5,22C 70.8166,20.3857 72.4833,19.2191 74.5,18.5C 74,18.1667 73.5,17.8333 73,17.5C 70.2237,18.8048 67.3904,19.9715 64.5,21C 62.388,21.9057 61.5547,23.4057 62,25.5C 62.9906,24.0611 64.324,23.0611 66,22.5C 68.4209,26.3403 70.5875,30.3403 72.5,34.5C 74.3957,35.6394 75.3957,34.9728 75.5,32.5C 76.552,32.3505 77.552,32.5172 78.5,33C 78.4351,34.8288 78.1018,36.6621 77.5,38.5C 45.7226,56.0448 30.556,83.0448 32,119.5C 32.3951,122.207 32.8951,124.873 33.5,127.5C 32.7321,128.263 32.2321,129.263 32,130.5C 31.6667,129.833 31.3333,129.167 31,128.5C 29.8437,129.502 29.3437,130.502 29.5,131.5C 28.4036,129.897 27.0703,128.397 25.5,127C 20.7381,126.523 16.0714,127.023 11.5,128.5C 11.281,129.675 11.6143,130.675 12.5,131.5C 17.0283,129.719 21.695,129.219 26.5,130C 27.4061,131.699 27.7394,133.533 27.5,135.5C 22.6452,136.544 17.9785,137.877 13.5,139.5C 10.6314,136.488 9.29808,137.155 9.5,141.5C 7.90608,137.75 6.73942,133.75 6,129.5C 5.50014,118.172 5.33348,106.838 5.5,95.5C 7.03954,93.1617 7.70621,90.4951 7.5,87.5C 20.0283,43.3035 48.695,16.3035 93.5,6.5 Z"/></g>
<g><path style="opacity:1" fill="#878787" d="M 15.5,95.5 C 14.0222,95.238 12.6888,95.5713 11.5,96.5C 11.6236,97.1067 11.9569,97.44 12.5,97.5C 12.44,98.0431 12.1067,98.3764 11.5,98.5C 9.97806,93.2355 11.3114,92.2355 15.5,95.5 Z"/></g>
<g><path style="opacity:1" fill="#eeeeee" d="M 27.5,83.5 C 28.4778,83.811 29.1445,84.4777 29.5,85.5C 25.5577,86.4929 21.5577,87.1596 17.5,87.5C 15.6672,87.4146 14.3339,86.7479 13.5,85.5C 18.3434,85.778 23.01,85.1113 27.5,83.5 Z"/></g>
<g><path style="opacity:1" fill="#b1b1b1" d="M 27.5,83.5 C 23.01,85.1113 18.3434,85.778 13.5,85.5C 16.986,84.4667 20.6526,83.6334 24.5,83C 21.9841,80.3167 19.3174,77.8167 16.5,75.5C 16.8333,75.1667 17.1667,74.8333 17.5,74.5C 21.488,76.8517 24.8214,79.8517 27.5,83.5 Z"/></g>
<g><path style="opacity:1" fill="#d9d9d9" d="M 26.5,67.5 C 26.8417,68.3382 27.5084,68.6716 28.5,68.5C 32.0343,72.5496 34.8676,72.2163 37,67.5C 37.1637,70.5225 36.1637,73.1891 34,75.5C 29.3536,72.7678 24.8536,69.9345 20.5,67C 21.2779,64.6101 22.4445,62.4434 24,60.5C 25.3282,62.0225 25.1616,63.6892 23.5,65.5C 24.3569,66.4252 25.3569,67.0919 26.5,67.5 Z"/></g>
<g><path style="opacity:1" fill="#838383" d="M 28.5,68.5 C 27.5084,68.6716 26.8417,68.3382 26.5,67.5C 28.1042,66.713 28.7709,65.3797 28.5,63.5C 30.3588,63.4609 31.6921,64.2942 32.5,66C 30.867,66.4796 29.5336,67.3129 28.5,68.5 Z"/></g>
<g><path style="opacity:1" fill="#cacaca" d="M 32.5,47.5 C 37.3394,46.6766 39.6728,48.6766 39.5,53.5C 42.5184,53.3354 45.5184,53.502 48.5,54C 45.1667,55 41.8333,56 38.5,57C 40.0259,59.1369 41.6925,60.3036 43.5,60.5C 42.8551,61.646 42.0217,62.646 41,63.5C 36.7028,60.276 32.5362,56.9426 28.5,53.5C 29.4671,51.2099 30.8004,49.2099 32.5,47.5 Z"/></g>
<g><path style="opacity:1" fill="#0f0f0f" d="M 32.5,50.5 C 36.5,49.8333 38.1667,51.5 37.5,55.5C 35.5165,55.6168 33.8498,54.9501 32.5,53.5C 31.4376,52.5754 31.4376,51.5754 32.5,50.5 Z"/></g>
<g><path style="opacity:1" fill="#cacaca" d="M 45.5,33.5 C 49.3258,34.4796 49.3258,35.3129 45.5,36C 43.8753,36.8525 43.5419,37.8525 44.5,39C 47.1667,39.3333 49.8333,39.6667 52.5,40C 57.5071,42.7329 57.8404,46.0662 53.5,50C 52.0563,50.7805 50.723,50.6139 49.5,49.5C 50.9905,48.7564 52.4905,48.0897 54,47.5C 54.6838,46.2161 54.5171,45.0495 53.5,44C 50.5,43.6667 47.5,43.3333 44.5,43C 41.7533,39.5527 42.0866,36.386 45.5,33.5 Z"/></g>
<g><path style="opacity:1" fill="#e0e0e0" d="M 55.5,26.5 C 58.2144,31.0745 61.2144,35.5745 64.5,40C 63.6667,40.8333 62.8333,41.6667 62,42.5C 59.5417,37.7471 56.7084,33.2471 53.5,29C 54.3805,28.2917 55.0472,27.4584 55.5,26.5 Z"/></g>
<g><path style="opacity:1" fill="#e4e4e4" d="M 15.5,95.5 C 19.5,95.8333 23.5,96.1667 27.5,96.5C 27.6602,98.1992 27.4935,99.8659 27,101.5C 22.4682,99.3549 17.6349,98.0215 12.5,97.5C 11.9569,97.44 11.6236,97.1067 11.5,96.5C 12.6888,95.5713 14.0222,95.238 15.5,95.5 Z"/></g>
<g><path style="opacity:1" fill="#6d6d6d" d="M 11.5,108.5 C 14.6868,107.194 18.0202,107.194 21.5,108.5C 21.3764,109.107 21.0431,109.44 20.5,109.5C 17.7131,108.523 14.7131,108.19 11.5,108.5 Z"/></g>
<g><path style="opacity:1" fill="#8a8a8a" d="M 5.5,84.5 C 2.92189,97.3548 1.92189,110.355 2.5,123.5C 1.34305,115.01 1.17639,106.343 2,97.5C 2.41203,92.8428 3.5787,88.5095 5.5,84.5 Z"/></g>
<g><path style="opacity:1" fill="#818181" d="M 217.5,93.5 C 218.953,99.267 219.62,105.267 219.5,111.5C 219.499,115.349 219.165,119.016 218.5,122.5C 218.578,112.815 218.245,103.148 217.5,93.5 Z"/></g>
<g><path style="opacity:1" fill="#d7d7d7" d="M 25.5,121.5 C 20.5,120.833 15.5,120.167 10.5,119.5C 13.5,115.833 16.8333,112.5 20.5,109.5C 21.0431,109.44 21.3764,109.107 21.5,108.5C 18.0202,107.194 14.6868,107.194 11.5,108.5C 10.9569,108.44 10.6236,108.107 10.5,107.5C 15.8023,106.337 21.1357,106.171 26.5,107C 22.8333,110.667 19.1667,114.333 15.5,118C 17.1667,118.167 18.8333,118.333 20.5,118.5C 22.6413,118.387 24.4747,117.72 26,116.5C 26.7796,118.387 26.6129,120.054 25.5,121.5 Z"/></g>
<g><path style="opacity:1" fill="#4a4a4a" d="M 10.5,119.5 C 15.5,120.167 20.5,120.833 25.5,121.5C 20.1254,121.828 14.7921,121.495 9.5,120.5C 9.62358,119.893 9.95691,119.56 10.5,119.5 Z"/></g>
<g><path style="opacity:1" fill="#0c0c0c" d="M 150.5,12.5 C 187.017,27.691 209.351,54.691 217.5,93.5C 218.245,103.148 218.578,112.815 218.5,122.5C 216.22,144.043 208.22,163.043 194.5,179.5C 193.178,179.33 192.011,179.663 191,180.5C 190.316,179.216 190.483,178.049 191.5,177C 190.263,176.768 189.263,176.268 188.5,175.5C 188.5,175.167 188.5,174.833 188.5,174.5C 191.113,173.905 191.113,173.071 188.5,172C 190.058,171.79 191.391,171.29 192.5,170.5C 192.5,169.833 192.5,169.167 192.5,168.5C 193.833,167.167 195.167,165.833 196.5,164.5C 199.43,160.523 199.097,159.523 195.5,161.5C 193.595,160.935 191.929,159.935 190.5,158.5C 191.59,157.391 191.59,156.391 190.5,155.5C 189.638,156.766 188.971,158.099 188.5,159.5C 185.515,157.555 182.182,156.555 178.5,156.5C 198.221,123.578 196.721,91.5778 174,60.5C 164.181,49.8091 152.681,41.8091 139.5,36.5C 141.199,36.6602 142.866,36.4935 144.5,36C 141.26,32.6345 141.927,30.8012 146.5,30.5C 146.281,31.675 146.614,32.675 147.5,33.5C 150.77,31.7333 153.603,29.4 156,26.5C 155.501,30.5138 155.667,34.5138 156.5,38.5C 160.685,34.4808 165.018,30.6475 169.5,27C 168.167,26.3333 166.833,26.3333 165.5,27C 164.018,28.9829 162.351,30.8163 160.5,32.5C 159.833,29.1667 159.167,25.8333 158.5,22.5C 156.167,24.5 153.833,26.5 151.5,28.5C 150.1,25.1378 150.433,21.9711 152.5,19C 151.529,17.5187 150.196,16.6854 148.5,16.5C 148.062,16.5654 147.728,16.3988 147.5,16C 148.167,15.6667 148.833,15.3333 149.5,15C 146.949,13.4842 147.282,12.6509 150.5,12.5 Z"/></g>
<g><path style="opacity:1" fill="#d1d1d1" d="M 201.5,102.5 C 212.345,101.343 216.345,106.01 213.5,116.5C 207.985,122.071 202.818,121.737 198,115.5C 196.668,110.415 197.835,106.081 201.5,102.5 Z"/></g>
<g><path style="opacity:1" fill="#111111" d="M 203.5,105.5 C 210.99,104.302 213.823,107.302 212,114.5C 207.199,118.749 202.866,118.416 199,113.5C 198.533,109.785 200.033,107.119 203.5,105.5 Z"/></g>
<g><path style="opacity:1" fill="#d5d5d5" d="M 205.5,89.5 C 207.5,89.5 209.5,89.5 211.5,89.5C 211.5,90.5 211.5,91.5 211.5,92.5C 206.784,92.846 202.117,93.5127 197.5,94.5C 197.247,96.8273 197.914,98.8273 199.5,100.5C 198.726,101.711 197.893,101.711 197,100.5C 196.304,97.5219 195.804,94.5219 195.5,91.5C 199.122,91.678 202.456,91.0114 205.5,89.5 Z"/></g>
<g><path style="opacity:1" fill="#d7d7d7" d="M 203.5,68.5 C 205.117,70.1209 206.284,72.1209 207,74.5C 207.508,79.9832 205.175,81.6498 200,79.5C 198.088,81.6572 196.421,83.9906 195,86.5C 194.944,82.9446 195.778,79.6112 197.5,76.5C 195.323,76.5861 193.323,77.2528 191.5,78.5C 190.585,77.6721 189.919,76.6721 189.5,75.5C 192.707,74.0297 196.041,72.8631 199.5,72C 201.544,71.5017 202.878,70.335 203.5,68.5 Z"/></g>
<g><path style="opacity:1" fill="#0e0e0e" d="M 201.5,73.5 C 202.833,73.5 204.167,73.5 205.5,73.5C 205.621,76.5409 204.121,78.2076 201,78.5C 199.72,78.3865 198.887,77.7199 198.5,76.5C 199.34,75.265 200.34,74.265 201.5,73.5 Z"/></g>
<g><path style="opacity:1" fill="#cfcfcf" d="M 195.5,53.5 C 197.248,56.4305 199.248,59.2639 201.5,62C 200.975,62.6924 200.308,63.1924 199.5,63.5C 199.121,58.8794 197.288,57.8794 194,60.5C 194.218,62.5868 194.051,64.5868 193.5,66.5C 191.648,61.4029 189.315,61.2362 186.5,66C 186.903,67.4728 187.57,68.8061 188.5,70C 187.833,70.6667 187.167,70.6667 186.5,70C 185.076,67.8995 183.742,65.7328 182.5,63.5C 188.12,61.5135 192.453,58.1801 195.5,53.5 Z"/></g>
<g><path style="opacity:1" fill="#d7d7d7" d="M 183.5,39.5 C 187.033,42.831 190.367,46.4977 193.5,50.5C 193.167,50.8333 192.833,51.1667 192.5,51.5C 191.5,49.8333 190.167,48.5 188.5,47.5C 184.629,50.5051 181.129,53.8384 178,57.5C 176.978,56.646 176.145,55.646 175.5,54.5C 179.397,51.3908 183.064,48.0574 186.5,44.5C 185.048,43.0603 184.048,41.3936 183.5,39.5 Z"/></g>
<g><path style="opacity:1" fill="#cecece" d="M 175.5,32.5 C 176.497,32.4701 177.164,32.9701 177.5,34C 175.667,39.5 173.833,45 172,50.5C 168.986,48.4656 168.819,46.1322 171.5,43.5C 170.833,42.8333 170.167,42.1667 169.5,41.5C 166.692,40.9733 164.025,40.9733 161.5,41.5C 166.195,38.4894 170.862,35.4894 175.5,32.5 Z"/></g>
<g><path style="opacity:1" fill="#161616" d="M 171.5,36.5 C 172.239,36.369 172.906,36.5357 173.5,37C 172.789,38.2547 171.956,39.4214 171,40.5C 169.413,39.154 169.58,37.8206 171.5,36.5 Z"/></g>
<g><path style="opacity:1" fill="#cecece" d="M 202.5,123.5 C 210.011,124.169 213.178,128.169 212,135.5C 209.598,141.092 205.431,142.925 199.5,141C 192.313,133.769 193.313,127.936 202.5,123.5 Z"/></g>
<g><path style="opacity:1" fill="#0d0d0d" d="M 199.5,127.5 C 203.516,126.9 207.016,127.9 210,130.5C 210.907,137.168 208.073,139.668 201.5,138C 195.653,135.598 194.986,132.098 199.5,127.5 Z"/></g>
<g><path style="opacity:1" fill="#fbfbfb" d="M 224.5,123.5 C 224.5,157.167 224.5,190.833 224.5,224.5C 188.833,224.5 153.167,224.5 117.5,224.5C 177.398,216.605 213.064,182.938 224.5,123.5 Z"/></g>
<g><path style="opacity:1" fill="#bfbfbf" d="M 29.5,131.5 C 30.0414,134.652 29.0414,137.152 26.5,139C 22.6512,140.697 18.6512,141.863 14.5,142.5C 13.6143,141.675 13.281,140.675 13.5,139.5C 17.9785,137.877 22.6452,136.544 27.5,135.5C 27.7394,133.533 27.4061,131.699 26.5,130C 21.695,129.219 17.0283,129.719 12.5,131.5C 11.6143,130.675 11.281,129.675 11.5,128.5C 16.0714,127.023 20.7381,126.523 25.5,127C 27.0703,128.397 28.4036,129.897 29.5,131.5 Z"/></g>
<g><path style="opacity:1" fill="#fbfbfb" d="M -0.5,119.5 C 1.02024,130.583 3.52024,141.583 7,152.5C 24.9402,193.204 55.7735,217.204 99.5,224.5C 66.1667,224.5 32.8333,224.5 -0.5,224.5C -0.5,189.5 -0.5,154.5 -0.5,119.5 Z"/></g>
<g><path style="opacity:1" fill="#e2e2e2" d="M 139.5,36.5 C 152.681,41.8091 164.181,49.8091 174,60.5C 196.721,91.5778 198.221,123.578 178.5,156.5C 158.799,184.333 131.799,195.833 97.5,191C 63.0189,183.019 41.6855,161.852 33.5,127.5C 32.8951,124.873 32.3951,122.207 32,119.5C 30.556,83.0448 45.7226,56.0448 77.5,38.5C 83.7577,36.5177 90.091,34.6844 96.5,33C 111.168,30.2715 125.501,31.4382 139.5,36.5 Z"/></g>
<g><path style="opacity:1" fill="#404040" d="M 40.5,139.5 C 42.6246,142.088 43.9579,145.088 44.5,148.5C 42.0257,146.102 40.6924,143.102 40.5,139.5 Z"/></g>
<g><path style="opacity:1" fill="#464646" d="M 185.5,133.5 C 184.44,140.281 181.773,146.281 177.5,151.5C 180.227,145.391 182.894,139.391 185.5,133.5 Z"/></g>
<g><path style="opacity:1" fill="#edc55c" d="M 139.5,143.5 C 136.607,141.886 133.607,140.553 130.5,139.5C 129.71,138.599 128.71,137.932 127.5,137.5C 125.833,137.5 124.167,137.5 122.5,137.5C 122.5,141.154 123.5,144.487 125.5,147.5C 124.417,147.461 123.417,147.127 122.5,146.5C 121.451,148.216 120.118,149.549 118.5,150.5C 117.325,150.719 116.325,150.386 115.5,149.5C 116.689,148.571 118.022,148.238 119.5,148.5C 119.821,142.974 119.488,137.64 118.5,132.5C 118.5,132.167 118.5,131.833 118.5,131.5C 115.609,129.147 112.276,128.814 108.5,130.5C 107.937,132.709 106.604,134.209 104.5,135C 106.503,135.335 108.17,136.168 109.5,137.5C 109.5,138.167 109.5,138.833 109.5,139.5C 108.518,140.141 107.518,140.807 106.5,141.5C 104.484,139.751 102.818,137.751 101.5,135.5C 100.833,136.167 100.167,136.833 99.5,137.5C 98.3132,136.347 97.3132,136.347 96.5,137.5C 96.0276,139.531 95.0276,141.198 93.5,142.5C 91.9519,142.821 91.2852,143.821 91.5,145.5C 90.5,145.5 89.5,145.5 88.5,145.5C 88.5,146.5 88.5,147.5 88.5,148.5C 87.71,147.391 87.21,146.058 87,144.5C 85.8455,145.743 84.5122,146.743 83,147.5C 82.5172,148.448 82.3505,149.448 82.5,150.5C 83.8333,150.5 85.1667,150.5 86.5,150.5C 86.423,154.215 86.7564,157.881 87.5,161.5C 83.2795,157.726 80.6128,153.059 79.5,147.5C 90.7766,139.059 101.61,130.059 112,120.5C 121.555,127.838 130.721,135.505 139.5,143.5 Z"/></g>
<g><path style="opacity:1" fill="#444342" d="M 184.5,87.5 C 190.689,102.717 191.023,118.051 185.5,133.5C 188.435,118.076 188.102,102.743 184.5,87.5 Z"/></g>
<g><path style="opacity:1" fill="#140f0e" d="M 162.5,61.5 C 162.666,71.1724 162.5,80.8391 162,90.5C 161.55,100.469 160.05,110.135 157.5,119.5C 156.692,130.1 153.358,139.767 147.5,148.5C 146.833,148.167 146.167,147.833 145.5,147.5C 143.5,146.167 141.5,144.833 139.5,143.5C 130.721,135.505 121.555,127.838 112,120.5C 101.61,130.059 90.7766,139.059 79.5,147.5C 78.8333,148.5 78.1667,149.5 77.5,150.5C 77.573,148.973 76.9063,147.973 75.5,147.5C 66.7424,127.126 62.4091,105.792 62.5,83.5C 62.5,76.1667 62.5,68.8333 62.5,61.5C 95.8333,61.5 129.167,61.5 162.5,61.5 Z"/></g>
<g><path style="opacity:1" fill="#f2a464" d="M 96.5,137.5 C 97.8069,138.802 97.8069,140.135 96.5,141.5C 98.2914,142.17 99.9581,142.837 101.5,143.5C 99.5,143.5 97.5,143.5 95.5,143.5C 94.5084,143.672 93.8417,143.338 93.5,142.5C 95.0276,141.198 96.0276,139.531 96.5,137.5 Z"/></g>
<g><path style="opacity:1" fill="#d08036" d="M 127.5,137.5 C 128.71,137.932 129.71,138.599 130.5,139.5C 131.774,141.993 132.44,144.659 132.5,147.5C 134.401,147.246 135.067,147.58 134.5,148.5C 133.167,148.5 131.833,148.5 130.5,148.5C 130.5,147.5 130.5,146.5 130.5,145.5C 129.5,145.5 128.5,145.5 127.5,145.5C 128.232,142.932 128.232,140.266 127.5,137.5 Z"/></g>
<g><path style="opacity:1" fill="#f1f0ee" d="M 111.5,102.5 C 125.063,112.551 138.23,123.218 151,134.5C 151.079,137.37 150.245,140.036 148.5,142.5C 136.188,133.516 124.188,124.183 112.5,114.5C 100.811,122.361 89.8108,131.195 79.5,141C 77.9751,142.009 76.3084,142.509 74.5,142.5C 74.5456,139.568 74.0456,136.902 73,134.5C 85.9963,123.934 98.8296,113.267 111.5,102.5 Z"/></g>
<g><path style="opacity:1" fill="#fa9175" d="M 117.5,131.5 C 117.833,131.5 118.167,131.5 118.5,131.5C 118.5,131.833 118.5,132.167 118.5,132.5C 116.882,136.49 113.882,138.823 109.5,139.5C 109.5,138.833 109.5,138.167 109.5,137.5C 110.167,137.167 110.833,136.833 111.5,136.5C 114.732,136.228 116.732,134.562 117.5,131.5 Z"/></g>
<g><path style="opacity:1" fill="#b31d27" d="M 117.5,131.5 C 116.732,134.562 114.732,136.228 111.5,136.5C 111.056,131.42 113.056,129.753 117.5,131.5 Z"/></g>
<g><path style="opacity:1" fill="#bf512f" d="M 118.5,131.5 C 118.167,131.5 117.833,131.5 117.5,131.5C 113.056,129.753 111.056,131.42 111.5,136.5C 110.833,136.833 110.167,137.167 109.5,137.5C 108.17,136.168 106.503,135.335 104.5,135C 106.604,134.209 107.937,132.709 108.5,130.5C 112.276,128.814 115.609,129.147 118.5,131.5 Z"/></g>
<g><path style="opacity:1" fill="#ecc75c" d="M 118.5,99.5 C 120.436,100.259 122.269,101.259 124,102.5C 125.011,101.944 125.844,101.278 126.5,100.5C 127.502,102.011 128.169,103.678 128.5,105.5C 132.582,105.879 136.249,104.879 139.5,102.5C 140.152,104.808 141.485,106.475 143.5,107.5C 143.5,108.833 143.5,110.167 143.5,111.5C 143.37,114.237 144.536,116.237 147,117.5C 148.766,116.767 150.599,116.433 152.5,116.5C 152.396,113.91 153.063,111.577 154.5,109.5C 153.023,107.361 152.023,105.028 151.5,102.5C 153.124,102.64 154.29,101.973 155,100.5C 156.012,103.31 157.178,105.976 158.5,108.5C 158.058,112.154 157.724,115.821 157.5,119.5C 156.058,121.54 155.058,123.873 154.5,126.5C 153.635,127.583 152.635,127.749 151.5,127C 140.06,118.291 129.06,109.125 118.5,99.5 Z"/></g>
<g><path style="opacity:1" fill="#ecc962" d="M 82.5,119.5 C 78.9163,123.455 74.583,126.122 69.5,127.5C 68.245,122.224 67.245,116.891 66.5,111.5C 67.3149,112.429 68.1482,113.429 69,114.5C 70.3158,111.312 70.8158,107.978 70.5,104.5C 71.5,104.5 72.5,104.5 73.5,104.5C 72.9569,111.004 72.1235,117.338 71,123.5C 71.3333,123.833 71.6667,124.167 72,124.5C 74.8634,121.371 78.3634,119.705 82.5,119.5 Z"/></g>
<g><path style="opacity:1" fill="#f8d34e" d="M 79.5,100.5 C 82.1667,100.833 84.8333,101.167 87.5,101.5C 89.0847,102.002 89.5847,103.002 89,104.5C 87.0548,105.692 85.0548,105.692 83,104.5C 80.7651,105.896 79.5985,107.896 79.5,110.5C 78.4448,113.073 78.2782,115.739 79,118.5C 81.2301,113.572 82.7301,113.572 83.5,118.5C 82.8333,118.5 82.5,118.833 82.5,119.5C 78.3634,119.705 74.8634,121.371 72,124.5C 71.6667,124.167 71.3333,123.833 71,123.5C 72.1235,117.338 72.9569,111.004 73.5,104.5C 72.5,104.5 71.5,104.5 70.5,104.5C 70.8158,107.978 70.3158,111.312 69,114.5C 68.1482,113.429 67.3149,112.429 66.5,111.5C 66.5,107.833 66.5,104.167 66.5,100.5C 67.8333,100.5 69.1667,100.5 70.5,100.5C 73.5422,99.4589 76.5422,99.4589 79.5,100.5 Z"/></g>
<g><path style="opacity:1" fill="#f2b660" d="M 143.5,107.5 C 145.527,107.338 147.527,107.505 149.5,108C 150.99,110.2 150.657,112.034 148.5,113.5C 147.158,111.995 145.492,111.328 143.5,111.5C 143.5,110.167 143.5,108.833 143.5,107.5 Z"/></g>
<g><path style="opacity:1" fill="#b12b23" d="M 145.5,85.5 C 145.34,87.1992 145.506,88.8659 146,90.5C 147.588,94.6717 149.421,98.6717 151.5,102.5C 152.023,105.028 153.023,107.361 154.5,109.5C 153.063,111.577 152.396,113.91 152.5,116.5C 150.599,116.433 148.766,116.767 147,117.5C 144.536,116.237 143.37,114.237 143.5,111.5C 145.492,111.328 147.158,111.995 148.5,113.5C 150.657,112.034 150.99,110.2 149.5,108C 147.527,107.505 145.527,107.338 143.5,107.5C 141.485,106.475 140.152,104.808 139.5,102.5C 136.249,104.879 132.582,105.879 128.5,105.5C 128.169,103.678 127.502,102.011 126.5,100.5C 127.404,99.791 127.737,98.791 127.5,97.5C 130.541,97.4056 132.207,98.9056 132.5,102C 133.793,102.49 135.127,102.657 136.5,102.5C 136.244,100.208 136.577,98.0408 137.5,96C 140.329,95.3111 141.996,96.4778 142.5,99.5C 143.614,98.277 143.781,96.9437 143,95.5C 140.648,93.9697 138.481,92.3031 136.5,90.5C 136.5,89.5 136.5,88.5 136.5,87.5C 139.261,86.0795 142.261,85.4129 145.5,85.5 Z"/></g>
<g><path style="opacity:1" fill="#f1c75d" d="M 98.5,95.5 C 99.1667,95.5 99.8333,95.5 100.5,95.5C 101.234,96.7079 101.567,98.0413 101.5,99.5C 103.167,99.5 104.833,99.5 106.5,99.5C 98.6491,105.595 90.9824,111.928 83.5,118.5C 82.7301,113.572 81.2301,113.572 79,118.5C 78.2782,115.739 78.4448,113.073 79.5,110.5C 80.1515,111.091 80.8182,111.757 81.5,112.5C 86.3583,110.477 90.525,107.477 94,103.5C 94.4922,102.451 94.3256,101.451 93.5,100.5C 95.8678,99.4226 97.5345,97.7559 98.5,95.5 Z"/></g>
<g><path style="opacity:1" fill="#b32225" d="M 95.5,89.5 C 95.5,90.1667 95.5,90.8333 95.5,91.5C 96.7888,92.6366 97.7888,93.9699 98.5,95.5C 97.5345,97.7559 95.8678,99.4226 93.5,100.5C 94.3256,101.451 94.4922,102.451 94,103.5C 90.525,107.477 86.3583,110.477 81.5,112.5C 80.8182,111.757 80.1515,111.091 79.5,110.5C 79.5985,107.896 80.7651,105.896 83,104.5C 85.0548,105.692 87.0548,105.692 89,104.5C 89.5847,103.002 89.0847,102.002 87.5,101.5C 85.1271,100.622 84.2938,98.9552 85,96.5C 86.53,95.0798 88.3633,94.0798 90.5,93.5C 88.5,92.1667 86.5,90.8333 84.5,89.5C 88.1617,86.8346 91.8284,86.8346 95.5,89.5 Z"/></g>
<g><path style="opacity:1" fill="#a92d1e" d="M 80.5,91.5 C 82.3464,91.2222 83.6798,91.8888 84.5,93.5C 82.9137,95.1727 82.2471,97.1727 82.5,99.5C 81.209,99.2627 80.209,99.596 79.5,100.5C 76.5422,99.4589 73.5422,99.4589 70.5,100.5C 70.2786,99.2652 69.6119,98.2652 68.5,97.5C 69.6302,96.3777 70.2969,95.0443 70.5,93.5C 71.8333,93.5 73.1667,93.5 74.5,93.5C 74.3838,96.9103 76.0504,98.2436 79.5,97.5C 79.2053,95.2646 79.5386,93.2646 80.5,91.5 Z"/></g>
<g><path style="opacity:1" fill="#efd652" d="M 159.5,95.5 C 159.5,97.8333 159.5,100.167 159.5,102.5C 157.98,100.412 156.98,98.0783 156.5,95.5C 156.5,93.5 156.5,91.5 156.5,89.5C 157.5,89.5 158.5,89.5 159.5,89.5C 159.5,91.5 159.5,93.5 159.5,95.5 Z"/></g>
<g><path style="opacity:1" fill="#f5d74d" d="M 106.5,99.5 C 104.833,99.5 103.167,99.5 101.5,99.5C 101.567,98.0413 101.234,96.7079 100.5,95.5C 102.543,94.4206 103.876,92.754 104.5,90.5C 105.496,90.5858 106.329,90.2524 107,89.5C 107.495,87.5273 107.662,85.5273 107.5,83.5C 108.833,83.5 110.167,83.5 111.5,83.5C 110.563,89.1307 108.897,94.464 106.5,99.5 Z"/></g>
<g><path style="opacity:1" fill="#d28238" d="M 101.5,86.5 C 102.9,87.0998 103.9,88.0998 104.5,89.5C 104.5,89.8333 104.5,90.1667 104.5,90.5C 103.876,92.754 102.543,94.4206 100.5,95.5C 99.8333,95.5 99.1667,95.5 98.5,95.5C 97.7888,93.9699 96.7888,92.6366 95.5,91.5C 101.285,93.9629 103.285,92.2962 101.5,86.5 Z"/></g>
<g><path style="opacity:1" fill="#f3bc5e" d="M 80.5,90.5 C 80.5,90.8333 80.5,91.1667 80.5,91.5C 79.5386,93.2646 79.2053,95.2646 79.5,97.5C 76.0504,98.2436 74.3838,96.9103 74.5,93.5C 73.1667,93.5 71.8333,93.5 70.5,93.5C 70.6107,92.8826 70.944,92.3826 71.5,92C 74.5131,91.4978 77.5131,90.9978 80.5,90.5 Z"/></g>
<g><path style="opacity:1" fill="#f29561" d="M 95.5,78.5 C 94.4208,82.1987 94.4208,85.8654 95.5,89.5C 91.8284,86.8346 88.1617,86.8346 84.5,89.5C 86.5,90.8333 88.5,92.1667 90.5,93.5C 88.3633,94.0798 86.53,95.0798 85,96.5C 84.2938,98.9552 85.1271,100.622 87.5,101.5C 84.8333,101.167 82.1667,100.833 79.5,100.5C 80.209,99.596 81.209,99.2627 82.5,99.5C 82.2471,97.1727 82.9137,95.1727 84.5,93.5C 83.6798,91.8888 82.3464,91.2222 80.5,91.5C 80.5,91.1667 80.5,90.8333 80.5,90.5C 82.7957,90.1959 83.129,89.1959 81.5,87.5C 85.5432,86.4105 89.5432,85.4105 93.5,84.5C 93.595,82.2143 94.2616,80.2143 95.5,78.5 Z"/></g>
<g><path style="opacity:1" fill="#f3d746" d="M 79.5,87.5 C 80.1667,87.5 80.8333,87.5 81.5,87.5C 83.129,89.1959 82.7957,90.1959 80.5,90.5C 77.5131,90.9978 74.5131,91.4978 71.5,92C 70.944,92.3826 70.6107,92.8826 70.5,93.5C 69.2921,94.2341 67.9587,94.5674 66.5,94.5C 66.178,92.2776 66.8446,90.4443 68.5,89C 72.3563,88.8227 76.023,88.3227 79.5,87.5 Z"/></g>
<g><path style="opacity:1" fill="#f8ce55" d="M 112.5,73.5 C 115.365,74.7828 118.365,74.7828 121.5,73.5C 122.386,74.325 122.719,75.325 122.5,76.5C 121.178,76.33 120.011,76.6634 119,77.5C 116.156,85.86 118.989,89.5267 127.5,88.5C 129.554,89.6086 131.721,90.6086 134,91.5C 134.765,91.4301 135.265,91.0967 135.5,90.5C 135.833,90.5 136.167,90.5 136.5,90.5C 138.481,92.3031 140.648,93.9697 143,95.5C 143.781,96.9437 143.614,98.277 142.5,99.5C 141.996,96.4778 140.329,95.3111 137.5,96C 136.577,98.0408 136.244,100.208 136.5,102.5C 135.127,102.657 133.793,102.49 132.5,102C 132.207,98.9056 130.541,97.4056 127.5,97.5C 127.737,98.791 127.404,99.791 126.5,100.5C 125.844,101.278 125.011,101.944 124,102.5C 122.269,101.259 120.436,100.259 118.5,99.5C 116.738,97.5833 114.571,96.25 112,95.5C 110.019,96.6502 108.186,97.9835 106.5,99.5C 108.897,94.464 110.563,89.1307 111.5,83.5C 110.167,83.5 108.833,83.5 107.5,83.5C 107.662,85.5273 107.495,87.5273 107,89.5C 106.329,90.2524 105.496,90.5858 104.5,90.5C 104.5,90.1667 104.5,89.8333 104.5,89.5C 104.911,86.4466 105.577,83.4466 106.5,80.5C 101.782,79.3076 101.449,77.1409 105.5,74C 108.025,73.8563 110.358,73.6896 112.5,73.5 Z"/></g>
<g><path style="opacity:1" fill="#e0b665" d="M 160.5,63.5 C 155.5,63.5 150.5,63.5 145.5,63.5C 132.5,63.5 119.5,63.5 106.5,63.5C 105.167,63.5 103.833,63.5 102.5,63.5C 100.833,63.5 99.1667,63.5 97.5,63.5C 97.5,64.5 97.5,65.5 97.5,66.5C 93.7162,66.5253 92.7162,68.1919 94.5,71.5C 91.3944,74.8911 87.7277,77.5578 83.5,79.5C 77.7008,77.3709 74.0341,73.3709 72.5,67.5C 71.0379,68.4709 69.7046,68.1376 68.5,66.5C 67.1668,69.1381 67.5002,71.4714 69.5,73.5C 68.5,73.5 67.5,73.5 66.5,73.5C 66.31,75.9589 67.31,77.6255 69.5,78.5C 67.8148,79.1837 66.8148,80.517 66.5,82.5C 67.2458,83.7362 67.5792,85.0695 67.5,86.5C 71.4831,86.8508 75.4831,87.1841 79.5,87.5C 76.023,88.3227 72.3563,88.8227 68.5,89C 66.8446,90.4443 66.178,92.2776 66.5,94.5C 67.9587,94.5674 69.2921,94.2341 70.5,93.5C 70.2969,95.0443 69.6302,96.3777 68.5,97.5C 69.6119,98.2652 70.2786,99.2652 70.5,100.5C 69.1667,100.5 67.8333,100.5 66.5,100.5C 66.5,104.167 66.5,107.833 66.5,111.5C 64.1461,95.4006 63.1461,79.0673 63.5,62.5C 96.0043,62.1684 128.338,62.5018 160.5,63.5 Z"/></g>
<g><path style="opacity:1" fill="#aa311e" d="M 131.5,85.5 C 132.609,86.29 133.942,86.79 135.5,87C 134.209,88.2917 134.209,89.4583 135.5,90.5C 135.265,91.0967 134.765,91.4301 134,91.5C 131.721,90.6086 129.554,89.6086 127.5,88.5C 126.428,86.1602 124.761,85.8269 122.5,87.5C 118.001,82.4766 119.001,79.9766 125.5,80C 126.26,81.4411 126.926,82.9411 127.5,84.5C 128.689,85.4287 130.022,85.762 131.5,85.5 Z"/></g>
<g><path style="opacity:1" fill="#f6916d" d="M 143.5,83.5 C 143.833,83.5 144.167,83.5 144.5,83.5C 144.833,83.5 145.167,83.5 145.5,83.5C 145.5,84.1667 145.5,84.8333 145.5,85.5C 142.261,85.4129 139.261,86.0795 136.5,87.5C 136.5,88.5 136.5,89.5 136.5,90.5C 136.167,90.5 135.833,90.5 135.5,90.5C 134.209,89.4583 134.209,88.2917 135.5,87C 133.942,86.79 132.609,86.29 131.5,85.5C 133.415,85.7845 135.081,85.4511 136.5,84.5C 137.15,84.8039 137.817,85.1373 138.5,85.5C 139.842,83.9951 141.508,83.3285 143.5,83.5 Z"/></g>
<g><path style="opacity:1" fill="#b33822" d="M 69.5,78.5 C 69.8333,79.1667 70.1667,79.8333 70.5,80.5C 70.9528,81.4584 71.6195,82.2917 72.5,83C 75.146,83.4974 77.8127,83.6641 80.5,83.5C 80.5674,84.9587 80.2341,86.2921 79.5,87.5C 75.4831,87.1841 71.4831,86.8508 67.5,86.5C 67.5792,85.0695 67.2458,83.7362 66.5,82.5C 66.8148,80.517 67.8148,79.1837 69.5,78.5 Z"/></g>
<g><path style="opacity:1" fill="#f0bb5d" d="M 145.5,63.5 C 150.5,63.5 155.5,63.5 160.5,63.5C 160.828,74.3464 160.494,85.0131 159.5,95.5C 159.5,93.5 159.5,91.5 159.5,89.5C 158.5,89.5 157.5,89.5 156.5,89.5C 156.5,91.5 156.5,93.5 156.5,95.5C 156.98,98.0783 157.98,100.412 159.5,102.5C 159.795,104.735 159.461,106.735 158.5,108.5C 157.178,105.976 156.012,103.31 155,100.5C 154.29,101.973 153.124,102.64 151.5,102.5C 149.421,98.6717 147.588,94.6717 146,90.5C 145.506,88.8659 145.34,87.1992 145.5,85.5C 145.5,84.8333 145.5,84.1667 145.5,83.5C 147.489,79.5977 147.823,75.5977 146.5,71.5C 146.5,70.8333 146.5,70.1667 146.5,69.5C 146.5,69.1667 146.5,68.8333 146.5,68.5C 147.043,68.44 147.376,68.1067 147.5,67.5C 146.675,66.6143 145.675,66.281 144.5,66.5C 144.557,65.391 144.89,64.391 145.5,63.5 Z"/></g>
<g><path style="opacity:1" fill="#f5b861" d="M 76.5,79.5 C 78.0231,81.5104 79.8564,81.8437 82,80.5C 82.0178,82.7972 81.8511,85.1305 81.5,87.5C 80.8333,87.5 80.1667,87.5 79.5,87.5C 80.2341,86.2921 80.5674,84.9587 80.5,83.5C 77.8127,83.6641 75.146,83.4974 72.5,83C 71.6195,82.2917 70.9528,81.4584 70.5,80.5C 72.258,80.8769 73.9246,81.5435 75.5,82.5C 76.3857,81.675 76.719,80.675 76.5,79.5 Z"/></g>
<g><path style="opacity:1" fill="#af2615" d="M 139.5,76.5 C 139.833,76.5 140.167,76.5 140.5,76.5C 140.938,76.4346 141.272,76.6012 141.5,77C 140.687,78.3139 139.687,79.4805 138.5,80.5C 140.655,81.0014 142.322,82.0014 143.5,83.5C 141.508,83.3285 139.842,83.9951 138.5,85.5C 137.817,85.1373 137.15,84.8039 136.5,84.5C 135.503,84.5299 134.836,84.0299 134.5,83C 134.989,81.8615 135.322,80.6948 135.5,79.5C 137.23,78.9744 138.564,77.9744 139.5,76.5 Z"/></g>
<g><path style="opacity:1" fill="#f7d751" d="M 156.5,76.5 C 157.496,76.4142 158.329,76.7476 159,77.5C 159.497,80.146 159.664,82.8127 159.5,85.5C 158.5,85.5 157.5,85.5 156.5,85.5C 156.5,82.5 156.5,79.5 156.5,76.5 Z"/></g>
<g><path style="opacity:1" fill="#b60f39" d="M 140.5,76.5 C 141.209,75.596 142.209,75.2627 143.5,75.5C 143.328,77.4918 143.995,79.1585 145.5,80.5C 144.873,81.4168 144.539,82.4168 144.5,83.5C 144.167,83.5 143.833,83.5 143.5,83.5C 142.322,82.0014 140.655,81.0014 138.5,80.5C 139.687,79.4805 140.687,78.3139 141.5,77C 141.272,76.6012 140.938,76.4346 140.5,76.5 Z"/></g>
<g><path style="opacity:1" fill="#4d4d4d" d="M 44.5,75.5 C 35.3737,96.299 34.0404,117.632 40.5,139.5C 33.1703,121.833 32.6703,103.833 39,85.5C 40.0859,81.6536 41.9193,78.3203 44.5,75.5 Z"/></g>
<g><path style="opacity:1" fill="#b1281a" d="M 146.5,71.5 C 147.823,75.5977 147.489,79.5977 145.5,83.5C 145.167,83.5 144.833,83.5 144.5,83.5C 144.539,82.4168 144.873,81.4168 145.5,80.5C 143.995,79.1585 143.328,77.4918 143.5,75.5C 144.5,74.1667 145.5,72.8333 146.5,71.5 Z"/></g>
<g><path style="opacity:1" fill="#f2d44d" d="M 69.5,73.5 C 71.5508,75.7126 73.8842,77.7126 76.5,79.5C 76.719,80.675 76.3857,81.675 75.5,82.5C 73.9246,81.5435 72.258,80.8769 70.5,80.5C 70.1667,79.8333 69.8333,79.1667 69.5,78.5C 67.31,77.6255 66.31,75.9589 66.5,73.5C 67.5,73.5 68.5,73.5 69.5,73.5 Z"/></g>
<g><path style="opacity:1" fill="#b1231e" d="M 94.5,71.5 C 95.4682,73.6074 95.8016,75.9407 95.5,78.5C 94.2616,80.2143 93.595,82.2143 93.5,84.5C 89.5432,85.4105 85.5432,86.4105 81.5,87.5C 81.8511,85.1305 82.0178,82.7972 82,80.5C 79.8564,81.8437 78.0231,81.5104 76.5,79.5C 73.8842,77.7126 71.5508,75.7126 69.5,73.5C 67.5002,71.4714 67.1668,69.1381 68.5,66.5C 69.7046,68.1376 71.0379,68.4709 72.5,67.5C 74.0341,73.3709 77.7008,77.3709 83.5,79.5C 87.7277,77.5578 91.3944,74.8911 94.5,71.5 Z"/></g>
<g><path style="opacity:1" fill="#f6b55e" d="M 127.5,67.5 C 129.094,67.9195 130.594,68.5862 132,69.5C 133.303,69.0217 134.469,68.355 135.5,67.5C 140.728,69.6803 140.728,71.847 135.5,74C 136.793,74.49 138.127,74.6567 139.5,74.5C 139.5,75.1667 139.5,75.8333 139.5,76.5C 138.564,77.9744 137.23,78.9744 135.5,79.5C 135.649,78.448 135.483,77.448 135,76.5C 130.629,75.1088 128.129,72.1088 127.5,67.5 Z"/></g>
<g><path style="opacity:1" fill="#dd814f" d="M 88.5,66.5 C 86.8325,68.4786 86.1658,70.812 86.5,73.5C 87.5,73.5 88.5,73.5 89.5,73.5C 84.8783,76.679 80.8783,76.0123 77.5,71.5C 80.1667,71.5 82.8333,71.5 85.5,71.5C 85.5,70.5 85.5,69.5 85.5,68.5C 84.448,68.6495 83.448,68.4828 82.5,68C 84.2495,66.6814 86.2495,66.1814 88.5,66.5 Z"/></g>
<g><path style="opacity:1" fill="#f89272" d="M 146.5,69.5 C 146.5,70.1667 146.5,70.8333 146.5,71.5C 145.5,72.8333 144.5,74.1667 143.5,75.5C 142.209,75.2627 141.209,75.596 140.5,76.5C 140.167,76.5 139.833,76.5 139.5,76.5C 139.5,75.8333 139.5,75.1667 139.5,74.5C 142.696,73.9609 145.03,72.2942 146.5,69.5 Z"/></g>
<g><path style="opacity:1" fill="#f7d151" d="M 102.5,63.5 C 103.323,65.4546 103.49,67.4546 103,69.5C 101.989,70.3366 100.822,70.67 99.5,70.5C 98.9755,74.0736 98.9755,77.5736 99.5,81C 99.0496,82.2853 98.3829,83.452 97.5,84.5C 97.9698,85.463 98.6365,85.463 99.5,84.5C 99.5,85.8333 100.167,86.5 101.5,86.5C 103.285,92.2962 101.285,93.9629 95.5,91.5C 95.5,90.8333 95.5,90.1667 95.5,89.5C 94.4208,85.8654 94.4208,82.1987 95.5,78.5C 95.8016,75.9407 95.4682,73.6074 94.5,71.5C 92.7162,68.1919 93.7162,66.5253 97.5,66.5C 97.5,65.5 97.5,64.5 97.5,63.5C 99.1667,63.5 100.833,63.5 102.5,63.5 Z"/></g>
<g><path style="opacity:1" fill="#faf9f7" d="M 160.5,54.5 C 171.178,63.5098 179.178,74.5098 184.5,87.5C 188.102,102.743 188.435,118.076 185.5,133.5C 182.894,139.391 180.227,145.391 177.5,151.5C 174.395,154.275 172.062,157.608 170.5,161.5C 167.215,164.118 164.215,167.118 161.5,170.5C 158.109,171.529 155.443,173.529 153.5,176.5C 127.975,189.903 101.975,190.903 75.5,179.5C 75.5,179.167 75.5,178.833 75.5,178.5C 76.552,178.649 77.552,178.483 78.5,178C 76.9559,177.71 75.6226,177.044 74.5,176C 76.8462,176.792 79.1795,176.625 81.5,175.5C 81.5,174.5 81.5,173.5 81.5,172.5C 85.1219,171.924 88.1219,172.924 90.5,175.5C 91.1667,175.167 91.8333,174.833 92.5,174.5C 89.8124,170.653 86.3124,167.653 82,165.5C 81.7132,163.109 81.2132,160.776 80.5,158.5C 78.8068,157.772 77.3068,156.772 76,155.5C 75.6667,155.833 75.3333,156.167 75,156.5C 74.6466,155.328 74.8132,154.162 75.5,153C 75.0946,152.055 74.428,151.388 73.5,151C 74.8228,150.184 75.4894,149.017 75.5,147.5C 76.9063,147.973 77.573,148.973 77.5,150.5C 85.2977,165.13 96.7977,175.797 112,182.5C 127.923,175.409 139.757,164.076 147.5,148.5C 153.358,139.767 156.692,130.1 157.5,119.5C 160.05,110.135 161.55,100.469 162,90.5C 162.5,80.8391 162.666,71.1724 162.5,61.5C 132.338,60.5019 102.005,60.1685 71.5,60.5C 100.664,59.6677 129.997,59.1677 159.5,59C 159.519,57.4794 159.852,55.9794 160.5,54.5 Z"/></g>
<g><path style="opacity:1" fill="#b42b1e" d="M 135.5,67.5 C 135.833,67.5 136.167,67.5 136.5,67.5C 139.928,67.7875 143.262,68.1209 146.5,68.5C 146.5,68.8333 146.5,69.1667 146.5,69.5C 145.03,72.2942 142.696,73.9609 139.5,74.5C 138.127,74.6567 136.793,74.49 135.5,74C 140.728,71.847 140.728,69.6803 135.5,67.5 Z"/></g>
<g><path style="opacity:1" fill="#f5bd5a" d="M 120.5,69.5 C 121.702,70.4054 123.036,70.4054 124.5,69.5C 123.659,71.3792 123.325,73.3792 123.5,75.5C 125.5,75.5 127.5,75.5 129.5,75.5C 129.5,76.8333 129.5,78.1667 129.5,79.5C 131.5,79.5 133.5,79.5 135.5,79.5C 135.322,80.6948 134.989,81.8615 134.5,83C 134.836,84.0299 135.503,84.5299 136.5,84.5C 135.081,85.4511 133.415,85.7845 131.5,85.5C 130.022,85.762 128.689,85.4287 127.5,84.5C 126.926,82.9411 126.26,81.4411 125.5,80C 119.001,79.9766 118.001,82.4766 122.5,87.5C 124.761,85.8269 126.428,86.1602 127.5,88.5C 118.989,89.5267 116.156,85.86 119,77.5C 120.011,76.6634 121.178,76.33 122.5,76.5C 122.719,75.325 122.386,74.325 121.5,73.5C 118.365,74.7828 115.365,74.7828 112.5,73.5C 116.343,74.2255 119.01,72.8922 120.5,69.5 Z"/></g>
<g><path style="opacity:1" fill="#ad2a22" d="M 114.5,67.5 C 116.102,69.0739 118.102,69.7406 120.5,69.5C 119.01,72.8922 116.343,74.2255 112.5,73.5C 110.358,73.6896 108.025,73.8563 105.5,74C 101.449,77.1409 101.782,79.3076 106.5,80.5C 105.577,83.4466 104.911,86.4466 104.5,89.5C 103.9,88.0998 102.9,87.0998 101.5,86.5C 100.167,86.5 99.5,85.8333 99.5,84.5C 100.649,84.2089 101.316,83.3756 101.5,82C 100.668,79.5217 100.501,77.0217 101,74.5C 102.333,72.5 103.667,70.5 105,68.5C 108.057,67.5495 111.223,67.2161 114.5,67.5 Z"/></g>
<g><path style="opacity:1" fill="#9b4001" d="M 131.5,71.5 C 132.946,70.3871 134.613,70.2204 136.5,71C 134.977,72.7884 133.31,72.9551 131.5,71.5 Z"/></g>
<g><path style="opacity:1" fill="#b93f2d" d="M 127.5,67.5 C 128.129,72.1088 130.629,75.1088 135,76.5C 135.483,77.448 135.649,78.448 135.5,79.5C 133.5,79.5 131.5,79.5 129.5,79.5C 129.5,78.1667 129.5,76.8333 129.5,75.5C 127.5,75.5 125.5,75.5 123.5,75.5C 123.325,73.3792 123.659,71.3792 124.5,69.5C 125.5,68.8333 126.5,68.1667 127.5,67.5 Z"/></g>
<g><path style="opacity:1" fill="#b22120" d="M 88.5,66.5 C 89.9778,66.238 91.3112,66.5713 92.5,67.5C 92.0863,69.9192 91.0863,71.9192 89.5,73.5C 88.5,73.5 87.5,73.5 86.5,73.5C 86.1658,70.812 86.8325,68.4786 88.5,66.5 Z"/></g>
<g><path style="opacity:1" fill="#f9d359" d="M 77.5,71.5 C 76.5,71.5 75.5,71.5 74.5,71.5C 74.5,69.8333 74.5,68.1667 74.5,66.5C 72.6536,66.7778 71.3202,66.1112 70.5,64.5C 77.8107,63.3354 85.144,63.1687 92.5,64C 88.6437,65.1029 84.6437,65.9362 80.5,66.5C 81.1455,68.4321 82.4788,69.5988 84.5,70C 82.1929,70.7786 80.1929,70.2786 78.5,68.5C 77.6143,69.325 77.281,70.325 77.5,71.5 Z"/></g>
<g><path style="opacity:1" fill="#535353" d="M 151.5,46.5 C 162.715,52.212 171.548,60.5454 178,71.5C 181.025,76.5409 183.192,81.8742 184.5,87.5C 179.178,74.5098 171.178,63.5098 160.5,54.5C 157.5,51.8333 154.5,49.1667 151.5,46.5 Z"/></g>
<g><path style="opacity:1" fill="#e57b48" d="M 144.5,66.5 C 145.675,66.281 146.675,66.6143 147.5,67.5C 147.376,68.1067 147.043,68.44 146.5,68.5C 143.262,68.1209 139.928,67.7875 136.5,67.5C 138.838,65.2574 141.504,64.9241 144.5,66.5 Z"/></g>
<g><path style="opacity:1" fill="#af3b1d" d="M 156.5,95.5 C 156.719,96.675 156.386,97.675 155.5,98.5C 154.5,96.5 153.5,94.5 152.5,92.5C 151.313,93.8938 150.646,93.7271 150.5,92C 152.112,84.9104 153.445,77.7437 154.5,70.5C 153.167,70.5 151.833,70.5 150.5,70.5C 149.206,72.2277 149.206,70.7277 150.5,66C 155.908,63.7333 158.075,65.5666 157,71.5C 155.888,73.3904 155.054,75.3904 154.5,77.5C 155.086,83.6525 155.753,89.6525 156.5,95.5 Z"/></g>
<g><path style="opacity:1" fill="#f8d05b" d="M 106.5,63.5 C 119.5,63.5 132.5,63.5 145.5,63.5C 144.89,64.391 144.557,65.391 144.5,66.5C 141.504,64.9241 138.838,65.2574 136.5,67.5C 136.167,67.5 135.833,67.5 135.5,67.5C 134.469,68.355 133.303,69.0217 132,69.5C 130.594,68.5862 129.094,67.9195 127.5,67.5C 126.5,68.1667 125.5,68.8333 124.5,69.5C 123.036,70.4054 121.702,70.4054 120.5,69.5C 118.102,69.7406 116.102,69.0739 114.5,67.5C 111.655,66.4616 108.988,65.1282 106.5,63.5 Z"/></g>
<g><path style="opacity:1" fill="#f9bb66" d="M 102.5,63.5 C 103.833,63.5 105.167,63.5 106.5,63.5C 108.988,65.1282 111.655,66.4616 114.5,67.5C 111.223,67.2161 108.057,67.5495 105,68.5C 103.667,70.5 102.333,72.5 101,74.5C 100.501,77.0217 100.668,79.5217 101.5,82C 101.316,83.3756 100.649,84.2089 99.5,84.5C 98.6365,85.463 97.9698,85.463 97.5,84.5C 98.3829,83.452 99.0496,82.2853 99.5,81C 98.9755,77.5736 98.9755,74.0736 99.5,70.5C 100.822,70.67 101.989,70.3366 103,69.5C 103.49,67.4546 103.323,65.4546 102.5,63.5 Z"/></g>
<g><path style="opacity:1" fill="#505050" d="M 53.5,62.5 C 50.8827,67.1141 47.8827,71.4474 44.5,75.5C 46.3375,70.3346 49.3375,66.0013 53.5,62.5 Z"/></g>
<g><path style="opacity:1" fill="#fbfbf9" d="M 151.5,46.5 C 154.5,49.1667 157.5,51.8333 160.5,54.5C 159.852,55.9794 159.519,57.4794 159.5,59C 129.997,59.1677 100.664,59.6677 71.5,60.5C 68.1667,60.5 64.8333,60.5 61.5,60.5C 61.1746,68.3516 61.508,76.0182 62.5,83.5C 62.4091,105.792 66.7424,127.126 75.5,147.5C 75.4894,149.017 74.8228,150.184 73.5,151C 74.428,151.388 75.0946,152.055 75.5,153C 74.8132,154.162 74.6466,155.328 75,156.5C 75.3333,156.167 75.6667,155.833 76,155.5C 77.3068,156.772 78.8068,157.772 80.5,158.5C 81.2132,160.776 81.7132,163.109 82,165.5C 86.3124,167.653 89.8124,170.653 92.5,174.5C 91.8333,174.833 91.1667,175.167 90.5,175.5C 88.1219,172.924 85.1219,171.924 81.5,172.5C 81.5,173.5 81.5,174.5 81.5,175.5C 79.1795,176.625 76.8462,176.792 74.5,176C 75.6226,177.044 76.9559,177.71 78.5,178C 77.552,178.483 76.552,178.649 75.5,178.5C 71.1493,175.806 66.8159,173.14 62.5,170.5C 59.8333,167.167 56.8333,164.167 53.5,161.5C 50.8827,156.886 47.8827,152.553 44.5,148.5C 43.9579,145.088 42.6246,142.088 40.5,139.5C 34.0404,117.632 35.3737,96.299 44.5,75.5C 47.8827,71.4474 50.8827,67.1141 53.5,62.5C 56.8333,59.8333 59.8333,56.8333 62.5,53.5C 67.1141,50.8827 71.4474,47.8827 75.5,44.5C 78.9122,43.9579 81.9122,42.6246 84.5,40.5C 107.691,33.561 130.025,35.561 151.5,46.5 Z"/></g>
<g><path style="opacity:1" fill="#5e5448" d="M 71.5,60.5 C 102.005,60.1685 132.338,60.5019 162.5,61.5C 129.167,61.5 95.8333,61.5 62.5,61.5C 62.5,68.8333 62.5,76.1667 62.5,83.5C 61.508,76.0182 61.1746,68.3516 61.5,60.5C 64.8333,60.5 68.1667,60.5 71.5,60.5 Z"/></g>
<g><path style="opacity:1" fill="#4e4e4e" d="M 62.5,53.5 C 59.8333,56.8333 56.8333,59.8333 53.5,62.5C 55.5,58.5 58.5,55.5 62.5,53.5 Z"/></g>
<g><path style="opacity:1" fill="#555255" d="M 75.5,44.5 C 71.4474,47.8827 67.1141,50.8827 62.5,53.5C 66.0013,49.3375 70.3346,46.3375 75.5,44.5 Z"/></g>
<g><path style="opacity:1" fill="#565656" d="M 84.5,40.5 C 81.9122,42.6246 78.9122,43.9579 75.5,44.5C 77.8355,41.8352 80.8355,40.5018 84.5,40.5 Z"/></g>
<g><path style="opacity:1" fill="#5d5d5d" d="M 151.5,46.5 C 130.025,35.561 107.691,33.561 84.5,40.5C 102.926,32.7234 121.593,32.5567 140.5,40C 144.56,41.6891 148.227,43.8558 151.5,46.5 Z"/></g>
<g><path style="opacity:1" fill="#b12e26" d="M 127.5,137.5 C 128.232,140.266 128.232,142.932 127.5,145.5C 127.631,146.239 127.464,146.906 127,147.5C 126.31,148.738 125.81,148.738 125.5,147.5C 123.5,144.487 122.5,141.154 122.5,137.5C 124.167,137.5 125.833,137.5 127.5,137.5 Z"/></g>
<g><path style="opacity:1" fill="#f2d048" d="M 127.5,145.5 C 128.5,145.5 129.5,145.5 130.5,145.5C 130.5,146.5 130.5,147.5 130.5,148.5C 129.486,149.674 128.153,150.34 126.5,150.5C 125.5,150.5 124.5,150.5 123.5,150.5C 123.421,151.93 123.754,153.264 124.5,154.5C 125.993,155.141 126.993,156.141 127.5,157.5C 126.022,157.762 124.689,157.429 123.5,156.5C 122.479,154.812 121.145,153.479 119.5,152.5C 119.167,151.833 118.833,151.167 118.5,150.5C 120.118,149.549 121.451,148.216 122.5,146.5C 123.417,147.127 124.417,147.461 125.5,147.5C 125.81,148.738 126.31,148.738 127,147.5C 127.464,146.906 127.631,146.239 127.5,145.5 Z"/></g>
<g><path style="opacity:1" fill="#f8cf50" d="M 88.5,148.5 C 89.5137,149.674 90.847,150.34 92.5,150.5C 99.3296,149 102.33,151.667 101.5,158.5C 100.5,158.5 99.5,158.5 98.5,158.5C 98.2648,157.903 97.7648,157.57 97,157.5C 95.9231,158.429 94.7564,159.096 93.5,159.5C 92.1411,160.007 91.1411,161.007 90.5,162.5C 89.5832,161.873 88.5832,161.539 87.5,161.5C 86.7564,157.881 86.423,154.215 86.5,150.5C 85.1667,150.5 83.8333,150.5 82.5,150.5C 82.3505,149.448 82.5172,148.448 83,147.5C 84.5122,146.743 85.8455,145.743 87,144.5C 87.21,146.058 87.71,147.391 88.5,148.5 Z"/></g>
<g><path style="opacity:1" fill="#b63128" d="M 118.5,132.5 C 119.488,137.64 119.821,142.974 119.5,148.5C 118.022,148.238 116.689,148.571 115.5,149.5C 116.325,150.386 117.325,150.719 118.5,150.5C 118.833,151.167 119.167,151.833 119.5,152.5C 119.298,154.95 119.631,157.283 120.5,159.5C 120.5,160.167 120.5,160.833 120.5,161.5C 120.461,163.359 121.294,164.692 123,165.5C 122.912,168.642 121.412,171.142 118.5,173C 117.328,173.353 116.162,173.187 115,172.5C 113.614,173.729 112.114,174.729 110.5,175.5C 110.539,174.417 110.873,173.417 111.5,172.5C 110.833,171.833 110.167,171.167 109.5,170.5C 110.993,169.859 111.993,168.859 112.5,167.5C 112.56,166.957 112.893,166.624 113.5,166.5C 114.439,168.053 115.606,169.387 117,170.5C 119.5,169.667 120,168.167 118.5,166C 115.671,164.753 113.005,163.253 110.5,161.5C 105.928,162.934 101.261,163.934 96.5,164.5C 94.679,163.272 93.679,161.606 93.5,159.5C 94.7564,159.096 95.9231,158.429 97,157.5C 97.7648,157.57 98.2648,157.903 98.5,158.5C 100.288,159.622 102.288,159.789 104.5,159C 102.91,156.52 103.41,154.687 106,153.5C 116.808,157.281 117.142,156.281 107,150.5C 106.275,151.059 105.442,151.392 104.5,151.5C 101.244,150.249 97.9104,149.249 94.5,148.5C 93.4777,148.855 92.811,149.522 92.5,150.5C 90.847,150.34 89.5137,149.674 88.5,148.5C 88.5,147.5 88.5,146.5 88.5,145.5C 89.5,145.5 90.5,145.5 91.5,145.5C 91.2852,143.821 91.9519,142.821 93.5,142.5C 93.8417,143.338 94.5084,143.672 95.5,143.5C 95.2627,144.791 95.596,145.791 96.5,146.5C 101.65,147.651 106.984,147.817 112.5,147C 110.713,145.681 108.713,144.848 106.5,144.5C 104.958,143.699 103.292,143.366 101.5,143.5C 99.9581,142.837 98.2914,142.17 96.5,141.5C 97.8069,140.135 97.8069,138.802 96.5,137.5C 97.3132,136.347 98.3132,136.347 99.5,137.5C 100.167,136.833 100.833,136.167 101.5,135.5C 102.818,137.751 104.484,139.751 106.5,141.5C 107.518,140.807 108.518,140.141 109.5,139.5C 113.882,138.823 116.882,136.49 118.5,132.5 Z"/></g>
<g><path style="opacity:1" fill="#e99744" d="M 106.5,144.5 C 108.713,144.848 110.713,145.681 112.5,147C 106.984,147.817 101.65,147.651 96.5,146.5C 100.182,146.665 103.848,146.499 107.5,146C 106.944,145.617 106.611,145.117 106.5,144.5 Z"/></g>
<g><path style="opacity:1" fill="#f7cc57" d="M 95.5,143.5 C 97.5,143.5 99.5,143.5 101.5,143.5C 103.292,143.366 104.958,143.699 106.5,144.5C 106.611,145.117 106.944,145.617 107.5,146C 103.848,146.499 100.182,146.665 96.5,146.5C 95.596,145.791 95.2627,144.791 95.5,143.5 Z"/></g>
<g><path style="opacity:1" fill="#51504f" d="M 177.5,151.5 C 176.149,155.542 173.815,158.875 170.5,161.5C 172.062,157.608 174.395,154.275 177.5,151.5 Z"/></g>
<g><path style="opacity:1" fill="#0c0c0c" d="M 33.5,127.5 C 41.6855,161.852 63.0189,183.019 97.5,191C 131.799,195.833 158.799,184.333 178.5,156.5C 182.182,156.555 185.515,157.555 188.5,159.5C 191.167,161.167 193.833,162.833 196.5,164.5C 195.167,165.833 193.833,167.167 192.5,168.5C 190.095,167.602 188.095,166.102 186.5,164C 187.96,163.189 188.293,162.355 187.5,161.5C 184.942,163.31 183.442,165.643 183,168.5C 183.689,167.643 184.522,166.977 185.5,166.5C 187.4,168.616 189.733,169.949 192.5,170.5C 191.391,171.29 190.058,171.79 188.5,172C 191.113,173.071 191.113,173.905 188.5,174.5C 186.122,172.877 183.455,171.543 180.5,170.5C 180.167,170.833 179.833,171.167 179.5,171.5C 180.803,174.437 182.47,177.103 184.5,179.5C 184.833,179.333 185.167,179.167 185.5,179C 180.87,173.307 181.87,172.14 188.5,175.5C 189.263,176.268 190.263,176.768 191.5,177C 190.483,178.049 190.316,179.216 191,180.5C 192.011,179.663 193.178,179.33 194.5,179.5C 177.844,200.439 156.178,213.105 129.5,217.5C 117.5,218.833 105.5,218.833 93.5,217.5C 57.8018,210.649 31.6351,190.983 15,158.5C 12.6579,152.974 10.8246,147.308 9.5,141.5C 9.29808,137.155 10.6314,136.488 13.5,139.5C 13.281,140.675 13.6143,141.675 14.5,142.5C 18.6512,141.863 22.6512,140.697 26.5,139C 29.0414,137.152 30.0414,134.652 29.5,131.5C 29.3437,130.502 29.8437,129.502 31,128.5C 31.3333,129.167 31.6667,129.833 32,130.5C 32.2321,129.263 32.7321,128.263 33.5,127.5 Z"/></g>
<g><path style="opacity:1" fill="#474645" d="M 44.5,148.5 C 47.8827,152.553 50.8827,156.886 53.5,161.5C 49.3375,157.999 46.3375,153.665 44.5,148.5 Z"/></g>
<g><path style="opacity:1" fill="#b5b5b5" d="M 35.5,159.5 C 31.855,158.68 29.5217,160.013 28.5,163.5C 29.1152,165.116 30.1152,166.449 31.5,167.5C 30.9984,168.521 30.3317,168.688 29.5,168C 27.0922,164.957 26.9255,161.791 29,158.5C 31.5515,156.98 33.7182,157.313 35.5,159.5 Z"/></g>
<g><path style="opacity:1" fill="#2c2314" d="M 79.5,147.5 C 80.6128,153.059 83.2795,157.726 87.5,161.5C 92.719,168.727 99.3856,174.06 107.5,177.5C 108.519,179.101 110.019,180.101 112,180.5C 115.013,178.954 117.846,177.287 120.5,175.5C 132.377,169.292 140.711,159.958 145.5,147.5C 146.167,147.833 146.833,148.167 147.5,148.5C 139.757,164.076 127.923,175.409 112,182.5C 96.7977,175.797 85.2977,165.13 77.5,150.5C 78.1667,149.5 78.8333,148.5 79.5,147.5 Z"/></g>
<g><path style="opacity:1" fill="#ab5010" d="M 127.5,157.5 C 129.927,158.279 129.927,159.446 127.5,161C 125.19,161.497 122.857,161.663 120.5,161.5C 120.5,160.833 120.5,160.167 120.5,159.5C 122.402,160.511 124.402,160.678 126.5,160C 127.252,159.329 127.586,158.496 127.5,157.5 Z"/></g>
<g><path style="opacity:1" fill="#fdc765" d="M 119.5,152.5 C 121.145,153.479 122.479,154.812 123.5,156.5C 124.689,157.429 126.022,157.762 127.5,157.5C 127.586,158.496 127.252,159.329 126.5,160C 124.402,160.678 122.402,160.511 120.5,159.5C 119.631,157.283 119.298,154.95 119.5,152.5 Z"/></g>
<g><path style="opacity:1" fill="#f6bc62" d="M 98.5,158.5 C 99.5,158.5 100.5,158.5 101.5,158.5C 102.33,151.667 99.3296,149 92.5,150.5C 92.811,149.522 93.4777,148.855 94.5,148.5C 97.9104,149.249 101.244,150.249 104.5,151.5C 105.442,151.392 106.275,151.059 107,150.5C 117.142,156.281 116.808,157.281 106,153.5C 103.41,154.687 102.91,156.52 104.5,159C 102.288,159.789 100.288,159.622 98.5,158.5 Z"/></g>
<g><path style="opacity:1" fill="#b02621" d="M 130.5,148.5 C 131.833,148.5 133.167,148.5 134.5,148.5C 134.217,151.847 132.717,154.513 130,156.5C 129.492,154.096 128.325,153.429 126.5,154.5C 125.374,153.192 125.374,151.858 126.5,150.5C 128.153,150.34 129.486,149.674 130.5,148.5 Z"/></g>
<g><path style="opacity:1" fill="#959595" d="M 35.5,159.5 C 37.8949,160.882 38.3949,162.548 37,164.5C 36.3923,162.846 35.8923,161.179 35.5,159.5 Z"/></g>
<g><path style="opacity:1" fill="#c0c0c0" d="M 196.5,164.5 C 193.833,162.833 191.167,161.167 188.5,159.5C 188.971,158.099 189.638,156.766 190.5,155.5C 191.59,156.391 191.59,157.391 190.5,158.5C 191.929,159.935 193.595,160.935 195.5,161.5C 199.097,159.523 199.43,160.523 196.5,164.5 Z"/></g>
<g><path style="opacity:1" fill="#b1b1b1" d="M 192.5,168.5 C 192.5,169.167 192.5,169.833 192.5,170.5C 189.733,169.949 187.4,168.616 185.5,166.5C 184.522,166.977 183.689,167.643 183,168.5C 183.442,165.643 184.942,163.31 187.5,161.5C 188.293,162.355 187.96,163.189 186.5,164C 188.095,166.102 190.095,167.602 192.5,168.5 Z"/></g>
<g><path style="opacity:1" fill="#4c4c4c" d="M 53.5,161.5 C 56.8333,164.167 59.8333,167.167 62.5,170.5C 58.5,168.5 55.5,165.5 53.5,161.5 Z"/></g>
<g><path style="opacity:1" fill="#111111" d="M 37.5,167.5 C 41.0714,167.408 42.2381,169.074 41,172.5C 40.4806,173.516 39.6473,174.182 38.5,174.5C 37.1508,174.154 35.8175,173.821 34.5,173.5C 34.461,170.911 35.461,168.911 37.5,167.5 Z"/></g>
<g><path style="opacity:1" fill="#575757" d="M 170.5,161.5 C 168.478,165.522 165.478,168.522 161.5,170.5C 164.215,167.118 167.215,164.118 170.5,161.5 Z"/></g>
<g><path style="opacity:1" fill="#e4e4e4" d="M 36.5,166.5 C 37.1667,166.5 37.5,166.833 37.5,167.5C 35.461,168.911 34.461,170.911 34.5,173.5C 32.8846,170.598 33.5512,168.265 36.5,166.5 Z"/></g>
<g><path style="opacity:1" fill="#575655" d="M 161.5,170.5 C 159.557,173.471 156.891,175.471 153.5,176.5C 155.443,173.529 158.109,171.529 161.5,170.5 Z"/></g>
<g><path style="opacity:1" fill="#afafaf" d="M 188.5,174.5 C 188.5,174.833 188.5,175.167 188.5,175.5C 181.87,172.14 180.87,173.307 185.5,179C 185.167,179.167 184.833,179.333 184.5,179.5C 182.47,177.103 180.803,174.437 179.5,171.5C 179.833,171.167 180.167,170.833 180.5,170.5C 183.455,171.543 186.122,172.877 188.5,174.5 Z"/></g>
<g><path style="opacity:1" fill="#8d8d8d" d="M 36.5,166.5 C 39.1024,165.031 41.269,165.698 43,168.5C 44.2673,172.731 42.7673,175.398 38.5,176.5C 36.5828,176.246 35.2495,175.246 34.5,173.5C 35.8175,173.821 37.1508,174.154 38.5,174.5C 39.6473,174.182 40.4806,173.516 41,172.5C 42.2381,169.074 41.0714,167.408 37.5,167.5C 37.5,166.833 37.1667,166.5 36.5,166.5 Z"/></g>
<g><path style="opacity:1" fill="#4d4d4c" d="M 62.5,170.5 C 66.8159,173.14 71.1493,175.806 75.5,178.5C 75.5,178.833 75.5,179.167 75.5,179.5C 70.2192,177.707 65.8859,174.707 62.5,170.5 Z"/></g>
<g><path style="opacity:1" fill="#aeaeae" d="M 45.5,173.5 C 47.2371,176.008 48.0704,179.008 48,182.5C 49.4216,180.362 51.255,179.195 53.5,179C 51.3171,181.35 48.9837,183.517 46.5,185.5C 45.6816,182.893 45.1816,180.226 45,177.5C 43.647,178.685 42.4803,180.019 41.5,181.5C 41.1667,181.167 40.8333,180.833 40.5,180.5C 42.6049,178.408 44.2716,176.075 45.5,173.5 Z"/></g>
<g><path style="opacity:1" fill="#f4ca58" d="M 130.5,139.5 C 133.607,140.553 136.607,141.886 139.5,143.5C 141.5,144.833 143.5,146.167 145.5,147.5C 140.711,159.958 132.377,169.292 120.5,175.5C 116.256,176.643 111.923,177.31 107.5,177.5C 99.3856,174.06 92.719,168.727 87.5,161.5C 88.5832,161.539 89.5832,161.873 90.5,162.5C 91.1411,161.007 92.1411,160.007 93.5,159.5C 93.679,161.606 94.679,163.272 96.5,164.5C 101.261,163.934 105.928,162.934 110.5,161.5C 113.005,163.253 115.671,164.753 118.5,166C 120,168.167 119.5,169.667 117,170.5C 115.606,169.387 114.439,168.053 113.5,166.5C 112.893,166.624 112.56,166.957 112.5,167.5C 111.292,168.234 109.959,168.567 108.5,168.5C 108.41,171.152 109.076,173.485 110.5,175.5C 112.114,174.729 113.614,173.729 115,172.5C 116.162,173.187 117.328,173.353 118.5,173C 121.412,171.142 122.912,168.642 123,165.5C 121.294,164.692 120.461,163.359 120.5,161.5C 122.857,161.663 125.19,161.497 127.5,161C 129.927,159.446 129.927,158.279 127.5,157.5C 126.993,156.141 125.993,155.141 124.5,154.5C 123.754,153.264 123.421,151.93 123.5,150.5C 124.5,150.5 125.5,150.5 126.5,150.5C 125.374,151.858 125.374,153.192 126.5,154.5C 128.325,153.429 129.492,154.096 130,156.5C 132.717,154.513 134.217,151.847 134.5,148.5C 135.067,147.58 134.401,147.246 132.5,147.5C 132.44,144.659 131.774,141.993 130.5,139.5 Z"/></g>
<g><path style="opacity:1" fill="#e48d52" d="M 112.5,167.5 C 111.993,168.859 110.993,169.859 109.5,170.5C 110.167,171.167 110.833,171.833 111.5,172.5C 110.873,173.417 110.539,174.417 110.5,175.5C 109.076,173.485 108.41,171.152 108.5,168.5C 109.959,168.567 111.292,168.234 112.5,167.5 Z"/></g>
<g><path style="opacity:1" fill="#b0b0b0" d="M 175.5,173.5 C 177.758,173.775 178.092,174.775 176.5,176.5C 177.701,178.909 179.367,180.909 181.5,182.5C 181.167,182.833 180.833,183.167 180.5,183.5C 178.183,181.684 176.016,179.684 174,177.5C 172.385,179.905 171.719,179.905 172,177.5C 173.72,176.616 174.886,175.283 175.5,173.5 Z"/></g>
<g><path style="opacity:1" fill="#e8c67a" d="M 120.5,175.5 C 117.846,177.287 115.013,178.954 112,180.5C 110.019,180.101 108.519,179.101 107.5,177.5C 111.923,177.31 116.256,176.643 120.5,175.5 Z"/></g>
<g><path style="opacity:1" fill="#c2c2c2" d="M 169.5,179.5 C 170.678,182.198 172.511,184.531 175,186.5C 175.688,187.332 175.521,187.998 174.5,188.5C 172.443,186.731 170.61,184.731 169,182.5C 168.53,181.423 168.697,180.423 169.5,179.5 Z"/></g>
<g><path style="opacity:1" fill="#aaaaaa" d="M 53.5,181.5 C 57.0268,181.538 59.6935,183.038 61.5,186C 61.1667,186.5 60.8333,187 60.5,187.5C 57.5582,182.264 54.8915,182.264 52.5,187.5C 53.5057,192.561 52.839,192.561 50.5,187.5C 50.9837,185.199 51.9837,183.199 53.5,181.5 Z"/></g>
<g><path style="opacity:1" fill="#454543" d="M 153.5,176.5 C 130.432,191.133 106.099,193.3 80.5,183C 78.4156,182.303 76.7489,181.136 75.5,179.5C 101.975,190.903 127.975,189.903 153.5,176.5 Z"/></g>
<g><path style="opacity:1" fill="#b1b1b1" d="M 162.5,185.5 C 165.917,183.722 167.917,184.889 168.5,189C 169.833,189.333 171.167,189.667 172.5,190C 171.892,190.87 171.059,191.37 170,191.5C 165.874,189.76 165.04,190.426 167.5,193.5C 167.167,193.833 166.833,194.167 166.5,194.5C 164.34,192.169 162.34,189.669 160.5,187C 161.044,186.283 161.711,185.783 162.5,185.5 Z"/></g>
<g><path style="opacity:1" fill="#1b1b1b" d="M 162.5,185.5 C 165.076,185.722 165.91,187.055 165,189.5C 163.519,188.529 162.685,187.196 162.5,185.5 Z"/></g>
<g><path style="opacity:1" fill="#bdbdbd" d="M 62.5,187.5 C 69.6317,187.789 71.2983,190.956 67.5,197C 59.0304,197.531 57.3638,194.364 62.5,187.5 Z"/></g>
<g><path style="opacity:1" fill="#0c0c0c" d="M 63.5,188.5 C 65.8184,188.818 67.1517,190.152 67.5,192.5C 66.9495,196.024 65.1162,197.024 62,195.5C 61.1668,192.829 61.6668,190.496 63.5,188.5 Z"/></g>
<g><path style="opacity:1" fill="#bdbdbd" d="M 151.5,191.5 C 152.643,194.976 152.81,198.642 152,202.5C 149.5,200 147,197.5 144.5,195C 147.284,194.583 149.284,195.75 150.5,198.5C 151.474,196.257 151.808,193.924 151.5,191.5 Z"/></g>
<g><path style="opacity:1" fill="#b3b3b3" d="M 155.5,188.5 C 159.056,188.275 159.39,189.108 156.5,191C 156.833,191.5 157.167,192 157.5,192.5C 160.788,191.462 161.121,192.128 158.5,194.5C 159.289,196.488 160.455,196.821 162,195.5C 162.688,196.332 162.521,196.998 161.5,197.5C 160.109,198.645 158.776,198.645 157.5,197.5C 155.226,194.696 154.56,191.696 155.5,188.5 Z"/></g>
<g><path style="opacity:1" fill="#adadad" d="M 72.5,192.5 C 74.1439,192.286 75.6439,192.62 77,193.5C 76.0949,196.845 75.5949,200.178 75.5,203.5C 74.1936,202.088 73.3603,200.421 73,198.5C 72.1667,199.5 71.3333,200.5 70.5,201.5C 70.1667,201.167 69.8333,200.833 69.5,200.5C 71.0761,198.021 72.0761,195.354 72.5,192.5 Z"/></g>
<g><path style="opacity:1" fill="#040404" d="M 74.5,194.5 C 75.7759,195.386 75.7759,196.386 74.5,197.5C 73.4376,196.575 73.4376,195.575 74.5,194.5 Z"/></g>
<g><path style="opacity:1" fill="#a6a6a6" d="M 132.5,203.5 C 132.565,203.062 132.399,202.728 132,202.5C 131.722,203.416 131.222,204.082 130.5,204.5C 130.215,202.712 130.548,201.045 131.5,199.5C 133.459,200.748 134.959,202.415 136,204.5C 136.497,202.19 136.663,199.857 136.5,197.5C 139.535,198.178 141.201,200.178 141.5,203.5C 141.167,204.167 140.833,204.833 140.5,205.5C 139.667,204.5 138.833,203.5 138,202.5C 137.71,204.044 137.044,205.377 136,206.5C 134.961,205.29 133.794,204.29 132.5,203.5 Z"/></g>
<g><path style="opacity:1" fill="#ababab" d="M 91.5,198.5 C 92.675,198.281 93.675,198.614 94.5,199.5C 93.9149,202.503 93.2482,205.503 92.5,208.5C 91.513,205.232 91.1796,201.898 91.5,198.5 Z"/></g>
<g><path style="opacity:1" fill="#c0c0c0" d="M 81.5,195.5 C 85.6912,195.584 88.3578,197.584 89.5,201.5C 89.1595,204.018 87.8262,205.185 85.5,205C 88.4415,202.008 88.1082,199.508 84.5,197.5C 81.7157,199.472 81.049,201.972 82.5,205C 81.5509,205.617 80.7175,205.451 80,204.5C 80.1584,201.498 80.6584,198.498 81.5,195.5 Z"/></g>
<g><path style="opacity:1" fill="#a3a3a3" d="M 99.5,199.5 C 100.931,199.881 101.764,200.881 102,202.5C 102.311,204.556 102.811,206.556 103.5,208.5C 103.167,208.833 102.833,209.167 102.5,209.5C 101.614,208.675 101.281,207.675 101.5,206.5C 100.167,206.5 98.8333,206.5 97.5,206.5C 97.5,207.5 97.5,208.5 97.5,209.5C 96.448,209.649 95.448,209.483 94.5,209C 96.8293,206.174 98.4959,203.008 99.5,199.5 Z"/></g>
<g><path style="opacity:1" fill="#9c9c9c" d="M 112.5,199.5 C 114.167,199.5 115.833,199.5 117.5,199.5C 117.649,200.552 117.483,201.552 117,202.5C 111.744,200.906 110.244,202.739 112.5,208C 114.761,208.239 116.761,208.406 118.5,208.5C 117.652,209.991 116.319,210.658 114.5,210.5C 112.076,210.852 110.576,209.852 110,207.5C 108.837,204.029 109.67,201.362 112.5,199.5 Z"/></g>
<g><path style="opacity:1" fill="#656565" d="M 132.5,203.5 C 133.038,205.117 133.371,206.784 133.5,208.5C 132.5,208.5 131.5,208.5 130.5,208.5C 130.5,207.167 130.5,205.833 130.5,204.5C 131.222,204.082 131.722,203.416 132,202.5C 132.399,202.728 132.565,203.062 132.5,203.5 Z"/></g>
<g><path style="opacity:1" fill="#9b9b9b" d="M 125.5,200.5 C 126.302,199.115 126.969,199.282 127.5,201C 129.804,207.689 127.637,210.189 121,208.5C 119.921,205.937 119.421,203.271 119.5,200.5C 120.5,200.5 121.5,200.5 122.5,200.5C 122.5,203.167 122.5,205.833 122.5,208.5C 123.822,208.67 124.989,208.337 126,207.5C 126.796,204.961 126.629,202.628 125.5,200.5 Z"/></g>
<g><path style="opacity:1" fill="#8a8a8a" d="M 93.5,217.5 C 105.5,218.833 117.5,218.833 129.5,217.5C 129.082,218.222 128.416,218.722 127.5,219C 117.5,219.667 107.5,219.667 97.5,219C 95.9419,218.79 94.6085,218.29 93.5,217.5 Z"/></g>
</svg>
